<svg width="24" height="24" viewBox="0 0 24 24" fill="none" xmlns="http://www.w3.org/2000/svg">
<path d="M6.52114 0.202213C5.01314 -0.180587 3.43264 -0.0181873 2.19434 0.674913C0.93284 1.37961 0.0483401 2.62951 0.00484011 4.30136C-0.0618599 6.91426 0.54279 10.4204 2.94399 14.5355C5.31474 18.5998 7.93199 21.0358 10.1041 22.4829C11.4758 23.3979 12.991 23.4225 14.2859 22.8266C15.5619 22.2393 16.5972 21.0663 17.1351 19.6119C17.269 19.2502 17.3228 18.8637 17.2928 18.4792C17.2627 18.0947 17.1496 17.7212 16.9611 17.3847L15.5778 14.9154C15.1524 14.1561 14.4679 13.5752 13.6495 13.2789C12.8312 12.9826 11.9335 12.9906 11.1205 13.3015L10.1548 13.6713C9.68649 13.8496 9.25584 13.767 9.01224 13.5263C8.19299 12.7215 7.60719 11.6297 7.34184 10.4523C7.25774 10.0811 7.42884 9.64316 7.83774 9.33431L8.70919 8.67601C9.41371 8.14439 9.90007 7.374 10.0771 6.50934C10.2541 5.64468 10.1095 4.74515 9.67054 3.97946L8.26114 1.52171C8.07442 1.19632 7.82415 0.911824 7.52523 0.68514C7.22631 0.458456 6.88484 0.294223 6.52114 0.202213ZM1.45484 4.33906C1.48384 3.21676 2.05224 2.41491 2.90194 1.93931C3.77484 1.45066 4.96674 1.30131 6.16444 1.60581C6.51969 1.69571 6.82129 1.92481 7.00399 2.24236L8.41194 4.70011C8.67528 5.15933 8.7621 5.69884 8.65613 6.21749C8.55015 6.73614 8.25866 7.19835 7.83629 7.51746L6.96484 8.17576C6.21084 8.74416 5.68884 9.71856 5.92664 10.7698C6.24854 12.1937 6.96049 13.5437 7.99579 14.5601C8.75269 15.3025 9.83149 15.346 10.6725 15.0241L11.6382 14.6544C12.1261 14.4676 12.6649 14.4627 13.1562 14.6406C13.6474 14.8184 14.0582 15.1671 14.3134 15.623L15.6953 18.0923C15.8693 18.4026 15.8983 18.7738 15.775 19.1073C15.3545 20.2456 14.5643 21.0996 13.6798 21.5071C12.8141 21.9058 11.8354 21.8942 10.9088 21.2751C8.92089 19.9498 6.45734 17.6762 4.19534 13.8032C1.93189 9.91866 1.39539 6.67936 1.45629 4.34051L1.45484 4.33906Z" fill="#F05454"/>
<path d="M15.5228 0.123909C15.3547 0.0304602 15.1564 0.0075981 14.9715 0.0603521C14.7866 0.113106 14.6302 0.237155 14.5368 0.405209C14.4433 0.573264 14.4204 0.771557 14.4732 0.956468C14.5259 1.14138 14.65 1.29776 14.8181 1.39121L15.3749 1.70151C17.1143 2.6678 18.5939 4.04087 19.6873 5.70337C20.7806 7.36588 21.4552 9.26839 21.6534 11.2483L21.6998 11.7051C21.7052 11.8028 21.7304 11.8985 21.7739 11.9862C21.8173 12.074 21.8781 12.152 21.9525 12.2156C22.0269 12.2792 22.1135 12.3271 22.2069 12.3564C22.3004 12.3857 22.3988 12.3957 22.4962 12.3859C22.5936 12.3761 22.688 12.3467 22.7738 12.2994C22.8595 12.2521 22.9348 12.1879 22.995 12.1107C23.0553 12.0336 23.0993 11.945 23.1244 11.8503C23.1495 11.7557 23.1552 11.6569 23.1411 11.5601L23.0961 11.1048C22.8749 8.89146 22.1209 6.76466 20.8988 4.90618C19.6766 3.0477 18.0226 1.51282 16.0781 0.432759L15.5228 0.123909Z" fill="#F05454"/>
<path d="M13.8233 4.00991C13.9224 3.84515 14.0828 3.72647 14.2694 3.67998C14.4559 3.63348 14.6532 3.66297 14.818 3.76196L14.9978 3.86926C16.168 4.57115 17.1718 5.51875 17.9399 6.64658C18.708 7.77441 19.222 9.05557 19.4464 10.4015L19.5102 10.7887C19.5285 10.8836 19.5276 10.9812 19.5075 11.0758C19.4875 11.1704 19.4487 11.26 19.3935 11.3394C19.3383 11.4187 19.2678 11.4863 19.1862 11.538C19.1045 11.5897 19.0133 11.6246 18.9179 11.6406C18.8226 11.6565 18.725 11.6532 18.6309 11.6309C18.5369 11.6086 18.4482 11.5677 18.3702 11.5106C18.2922 11.4535 18.2263 11.3814 18.1766 11.2985C18.1269 11.2156 18.0942 11.1236 18.0805 11.0279L18.0153 10.6408C17.8256 9.50199 17.3908 8.41799 16.7412 7.46367C16.0915 6.50934 15.2424 5.70743 14.2525 5.11336L14.0727 5.00461C13.991 4.95569 13.9198 4.89115 13.863 4.81467C13.8063 4.7382 13.7651 4.6513 13.742 4.55893C13.7188 4.46656 13.7141 4.37053 13.728 4.27633C13.742 4.18212 13.7744 4.0916 13.8233 4.00991Z" fill="#F05454"/>
</svg>
