<svg width="18" height="19" viewBox="0 0 18 19" fill="none" xmlns="http://www.w3.org/2000/svg">
<path d="M5.05301 0.656688C3.88452 0.360069 2.65984 0.485907 1.70032 1.02297C0.722827 1.56902 0.0374571 2.53752 0.00375044 3.83298C-0.0479332 5.85763 0.42059 8.57439 2.2812 11.763C4.11822 14.9124 6.14623 16.8 7.82932 17.9213C8.89221 18.6302 10.0663 18.6493 11.0697 18.1875C12.0584 17.7325 12.8606 16.8235 13.2774 15.6966C13.3812 15.4163 13.4229 15.1169 13.3996 14.8189C13.3763 14.521 13.2886 14.2316 13.1426 13.9708L12.0708 12.0574C11.7411 11.4691 11.2107 11.019 10.5766 10.7894C9.94244 10.5598 9.24686 10.566 8.61694 10.8069L7.86865 11.0934C7.50574 11.2316 7.17204 11.1676 6.98328 10.9811C6.34848 10.3575 5.89456 9.51144 5.68895 8.59911C5.62378 8.31148 5.75636 7.97217 6.0732 7.73285L6.74846 7.22275C7.29437 6.81082 7.67124 6.21387 7.80838 5.54387C7.94552 4.87387 7.83352 4.17686 7.49338 3.58355L6.40128 1.67912C6.2566 1.42699 6.06268 1.20654 5.83105 1.03089C5.59942 0.855243 5.33483 0.727983 5.05301 0.656688ZM1.12731 3.86219C1.14978 2.99256 1.59021 2.37124 2.24862 2.00271C2.925 1.62407 3.84856 1.50834 4.77662 1.74429C5.05189 1.81395 5.28559 1.99147 5.42716 2.23753L6.51813 4.14196C6.72219 4.4978 6.78946 4.91584 6.70734 5.31773C6.62523 5.71961 6.39936 6.07776 6.07208 6.32503L5.39682 6.83513C4.81257 7.27556 4.40809 8.03059 4.59236 8.84517C4.84179 9.9485 5.39345 10.9945 6.19567 11.7821C6.78217 12.3574 7.61809 12.3911 8.26976 12.1417L9.01805 11.8552C9.39611 11.7105 9.81364 11.7067 10.1943 11.8445C10.5749 11.9823 10.8932 12.2525 11.091 12.6057L12.1618 14.5191C12.2966 14.7596 12.3191 15.0472 12.2236 15.3056C11.8977 16.1876 11.2854 16.8494 10.6 17.1651C9.92925 17.4741 9.17085 17.4651 8.4529 16.9853C6.9125 15.9584 5.00358 14.1967 3.25083 11.1957C1.49696 8.18564 1.08124 5.67562 1.12843 3.86332L1.12731 3.86219Z" fill="#F05454"/>
<path d="M12.0281 0.596005C11.8978 0.523595 11.7442 0.50588 11.6009 0.546757C11.4576 0.587634 11.3365 0.683756 11.264 0.813975C11.1916 0.944195 11.1739 1.09785 11.2148 1.24113C11.2557 1.38441 11.3518 1.50558 11.482 1.57799L11.9135 1.81844C13.2613 2.56718 14.4078 3.63112 15.255 4.91935C16.1022 6.20757 16.6249 7.68176 16.7785 9.21593L16.8144 9.56985C16.8187 9.6456 16.8382 9.71971 16.8719 9.7877C16.9055 9.8557 16.9526 9.91617 17.0103 9.96547C17.0679 10.0148 17.135 10.0519 17.2074 10.0745C17.2798 10.0972 17.3561 10.105 17.4315 10.0974C17.507 10.0898 17.5802 10.067 17.6466 10.0304C17.7131 9.99372 17.7714 9.944 17.8181 9.8842C17.8648 9.8244 17.8989 9.75576 17.9183 9.68243C17.9378 9.60909 17.9422 9.53258 17.9312 9.4575L17.8964 9.1047C17.725 7.38969 17.1408 5.74171 16.1938 4.30163C15.2468 2.86155 13.9651 1.67223 12.4584 0.835323L12.0281 0.596005Z" fill="#F05454"/>
<path d="M10.7113 3.60715C10.788 3.47949 10.9123 3.38753 11.0569 3.3515C11.2014 3.31547 11.3543 3.33832 11.482 3.41503L11.6213 3.49817C12.5281 4.04204 13.3059 4.7763 13.901 5.65022C14.4962 6.52414 14.8945 7.51687 15.0684 8.55979L15.1178 8.85978C15.132 8.93335 15.1313 9.009 15.1157 9.08228C15.1002 9.15556 15.0702 9.225 15.0274 9.28651C14.9846 9.34801 14.93 9.40034 14.8667 9.44042C14.8034 9.4805 14.7328 9.50752 14.6589 9.51988C14.585 9.53225 14.5094 9.52971 14.4365 9.51242C14.3636 9.49513 14.2949 9.46343 14.2345 9.4192C14.174 9.37497 14.123 9.31909 14.0845 9.25486C14.0459 9.19062 14.0206 9.11933 14.01 9.04517L13.9595 8.74518C13.8124 7.86278 13.4756 7.02283 12.9722 6.28335C12.4688 5.54388 11.8109 4.92251 11.0438 4.46218L10.9045 4.37791C10.8412 4.34 10.786 4.28999 10.742 4.23074C10.698 4.17148 10.6662 4.10414 10.6482 4.03257C10.6303 3.96099 10.6266 3.88658 10.6374 3.81359C10.6482 3.7406 10.6733 3.67045 10.7113 3.60715Z" fill="#F05454"/>
</svg>
