<svg width="23" height="18" viewBox="0 0 23 18" fill="none" xmlns="http://www.w3.org/2000/svg">
<path d="M21.5625 0.5H1.4375C1.05625 0.5 0.690617 0.649255 0.421034 0.914932C0.15145 1.18061 0 1.54094 0 1.91667V16.0833C0 16.4591 0.15145 16.8194 0.421034 17.0851C0.690617 17.3507 1.05625 17.5 1.4375 17.5H21.5625C21.9437 17.5 22.3094 17.3507 22.579 17.0851C22.8486 16.8194 23 16.4591 23 16.0833V1.91667C23 1.54094 22.8486 1.18061 22.579 0.914932C22.3094 0.649255 21.9437 0.5 21.5625 0.5ZM20.4556 16.0833H2.63062L7.66187 10.955L6.62688 9.97042L1.4375 15.2617V2.99333L10.3716 11.7554C10.6409 12.0193 11.0052 12.1674 11.385 12.1674C11.7648 12.1674 12.1291 12.0193 12.3984 11.7554L21.5625 2.77375V15.1696L16.2725 9.95625L15.2591 10.955L20.4556 16.0833ZM2.37906 1.91667H20.3981L11.385 10.7496L2.37906 1.91667Z" fill="#F05454"/>
</svg>
