<svg width="25" height="28" viewBox="0 0 25 28" fill="none" xmlns="http://www.w3.org/2000/svg">
<path d="M9.41667 12.824L7.44444 14.812C6.30134 13.66 5.44882 12.2485 4.95833 10.696L7.65278 10.01C8.09722 11.256 8.72222 12.11 9.41667 12.824ZM11.1111 5.6L5.55556 0L0 5.6H4.19444C4.22222 6.734 4.30556 7.756 4.45833 8.638L7.15278 7.952C7.05555 7.28 6.98611 6.482 6.97222 5.6H11.1111ZM25 5.6L19.4444 0L13.8889 5.6H18.0417C17.9028 10.752 16.2639 12.25 14.5139 13.832C13.8194 14.448 13.1111 15.12 12.5 16.002C12.0278 15.316 11.4861 14.77 10.9306 14.266L8.97222 16.24C10.2639 17.43 11.1111 18.396 11.1111 21V28H13.8889V21C13.8889 18.172 14.875 17.276 16.375 15.918C18.2917 14.182 20.6528 12.026 20.8194 5.6H25Z" fill="#F05454"/>
</svg>
