<svg width="18" height="21" viewBox="0 0 18 21" fill="none" xmlns="http://www.w3.org/2000/svg">
<path d="M17.2938 16.8216C16.8423 15.6989 16.1871 14.6792 15.3646 13.8191C14.5446 12.9566 13.5733 12.2689 12.5042 11.794C12.4947 11.7889 12.4851 11.7864 12.4755 11.7814C13.9667 10.6508 14.9361 8.80905 14.9361 6.73116C14.9361 3.28894 12.2792 0.5 9 0.5C5.72077 0.5 3.06387 3.28894 3.06387 6.73116C3.06387 8.80905 4.03328 10.6508 5.52449 11.7839C5.51492 11.7889 5.50534 11.7915 5.49577 11.7965C4.42343 12.2714 3.46121 12.9523 2.63541 13.8216C1.81371 14.6823 1.15857 15.7019 0.706172 16.8241C0.261734 17.9227 0.0220377 19.1006 5.98544e-05 20.294C-0.00057901 20.3208 0.00390188 20.3475 0.0132386 20.3724C0.0225753 20.3974 0.036579 20.4202 0.0544243 20.4394C0.0722696 20.4586 0.0935956 20.4738 0.117146 20.4842C0.140696 20.4946 0.165993 20.5 0.191548 20.5H1.62771C1.73303 20.5 1.8168 20.4121 1.8192 20.304C1.86707 18.3643 2.60908 16.5477 3.92078 15.1709C5.27795 13.7462 7.08033 12.9623 9 12.9623C10.9197 12.9623 12.722 13.7462 14.0792 15.1709C15.3909 16.5477 16.1329 18.3643 16.1808 20.304C16.1832 20.4146 16.267 20.5 16.3723 20.5H17.8085C17.834 20.5 17.8593 20.4946 17.8829 20.4842C17.9064 20.4738 17.9277 20.4586 17.9456 20.4394C17.9634 20.4202 17.9774 20.3974 17.9868 20.3724C17.9961 20.3475 18.0006 20.3208 17.9999 20.294C17.976 19.093 17.739 17.9246 17.2938 16.8216ZM9 11.0528C7.90134 11.0528 6.8673 10.603 6.08938 9.78643C5.31146 8.96985 4.88301 7.88442 4.88301 6.73116C4.88301 5.57789 5.31146 4.49246 6.08938 3.67588C6.8673 2.8593 7.90134 2.40955 9 2.40955C10.0987 2.40955 11.1327 2.8593 11.9106 3.67588C12.6885 4.49246 13.117 5.57789 13.117 6.73116C13.117 7.88442 12.6885 8.96985 11.9106 9.78643C11.1327 10.603 10.0987 11.0528 9 11.0528Z" fill="#F05454"/>
</svg>
