<svg width="44" height="44" viewBox="0 0 44 44" fill="none" xmlns="http://www.w3.org/2000/svg">
<circle cx="22" cy="22" r="22" fill="#00E676"/>
<path d="M16.456 10.3872C14.792 9.96479 13.048 10.144 11.6816 10.9088C10.2896 11.6864 9.31359 13.0656 9.26559 14.9104C9.19199 17.7936 9.85919 21.6624 12.5088 26.2032C15.1248 30.688 18.0128 33.376 20.4096 34.9728C21.9232 35.9824 23.5952 36.0096 25.024 35.352C26.432 34.704 27.5744 33.4096 28.168 31.8048C28.3157 31.4057 28.3751 30.9792 28.3419 30.5549C28.3088 30.1306 28.1839 29.7185 27.976 29.3472L26.4496 26.6224C25.9801 25.7845 25.2249 25.1436 24.3218 24.8166C23.4188 24.4897 22.4282 24.4985 21.5312 24.8416L20.4656 25.2496C19.9488 25.4464 19.4736 25.3552 19.2048 25.0896C18.3008 24.2016 17.6544 22.9968 17.3616 21.6976C17.2688 21.288 17.4576 20.8048 17.9088 20.464L18.8704 19.7376C19.6478 19.151 20.1845 18.3009 20.3798 17.3468C20.5751 16.3927 20.4156 15.4001 19.9312 14.5552L18.376 11.8432C18.17 11.4841 17.8938 11.1702 17.564 10.9201C17.2341 10.6699 16.8573 10.4887 16.456 10.3872ZM10.8656 14.952C10.8976 13.7136 11.5248 12.8288 12.4624 12.304C13.4256 11.7648 14.7408 11.6 16.0624 11.936C16.4544 12.0352 16.7872 12.288 16.9888 12.6384L18.5424 15.3504C18.833 15.8571 18.9288 16.4524 18.8118 17.0247C18.6949 17.5971 18.3733 18.1071 17.9072 18.4592L16.9456 19.1856C16.1136 19.8128 15.5376 20.888 15.8 22.048C16.1552 23.6192 16.9408 25.1088 18.0832 26.2304C18.9184 27.0496 20.1088 27.0976 21.0368 26.7424L22.1024 26.3344C22.6408 26.1283 23.2354 26.1229 23.7774 26.3192C24.3194 26.5154 24.7727 26.9002 25.0544 27.4032L26.5792 30.128C26.7712 30.4704 26.8032 30.88 26.6672 31.248C26.2032 32.504 25.3312 33.4464 24.3552 33.896C23.4 34.336 22.32 34.3232 21.2976 33.64C19.104 32.1776 16.3856 29.6688 13.8896 25.3952C11.392 21.1088 10.8 17.5344 10.8672 14.9536L10.8656 14.952Z" fill="white"/>
<path d="M26.3888 10.3008C26.2033 10.1977 25.9845 10.1724 25.7805 10.2306C25.5765 10.2889 25.4039 10.4257 25.3008 10.6112C25.1977 10.7966 25.1724 11.0154 25.2306 11.2195C25.2889 11.4235 25.4257 11.5961 25.6112 11.6992L26.2256 12.0416C28.145 13.1078 29.7776 14.6229 30.9841 16.4574C32.1906 18.2919 32.9349 20.3912 33.1536 22.576L33.2048 23.08C33.2108 23.1879 33.2386 23.2934 33.2866 23.3902C33.3345 23.487 33.4016 23.5731 33.4837 23.6434C33.5658 23.7136 33.6613 23.7664 33.7644 23.7987C33.8675 23.831 33.9761 23.8421 34.0836 23.8312C34.1911 23.8204 34.2953 23.7879 34.3899 23.7358C34.4845 23.6836 34.5676 23.6128 34.6341 23.5276C34.7006 23.4425 34.7491 23.3447 34.7768 23.2403C34.8045 23.1359 34.8107 23.0269 34.7952 22.92L34.7456 22.4176C34.5015 19.9753 33.6695 17.6285 32.321 15.5778C30.9724 13.527 29.1472 11.8334 27.0016 10.6416L26.3888 10.3008Z" fill="white"/>
<path d="M24.5136 14.5888C24.6229 14.407 24.7999 14.276 25.0057 14.2247C25.2116 14.1734 25.4293 14.2059 25.6112 14.3152L25.8096 14.4336C27.1008 15.2081 28.2084 16.2537 29.056 17.4982C29.9035 18.7427 30.4707 20.1564 30.7184 21.6416L30.7888 22.0688C30.8089 22.1735 30.8079 22.2813 30.7858 22.3856C30.7637 22.49 30.7209 22.5889 30.66 22.6765C30.5991 22.764 30.5213 22.8386 30.4312 22.8956C30.341 22.9527 30.2404 22.9912 30.1352 23.0088C30.03 23.0264 29.9223 23.0228 29.8185 22.9982C29.7147 22.9735 29.6169 22.9284 29.5308 22.8654C29.4447 22.8024 29.3721 22.7229 29.3172 22.6314C29.2623 22.5399 29.2262 22.4384 29.2112 22.3328L29.1392 21.9056C28.9298 20.649 28.4501 19.4529 27.7333 18.3998C27.0164 17.3468 26.0795 16.4619 24.9872 15.8064L24.7888 15.6864C24.6986 15.6324 24.62 15.5612 24.5574 15.4768C24.4947 15.3924 24.4494 15.2965 24.4238 15.1946C24.3982 15.0927 24.393 14.9867 24.4084 14.8828C24.4238 14.7788 24.4596 14.6789 24.5136 14.5888Z" fill="white"/>
</svg>
