<svg width="43" height="43" viewBox="0 0 43 43" fill="none" xmlns="http://www.w3.org/2000/svg">
<path d="M21.5 0C9.62578 0 0 9.62578 0 21.5C0 33.3742 9.62578 43 21.5 43C33.3742 43 43 33.3742 43 21.5C43 9.62578 33.3742 0 21.5 0Z" fill="#40B3E0"/>
<path d="M21.5 0C9.62578 0 0 9.62578 0 21.5C0 33.3742 9.62578 43 21.5 43C33.3742 43 43 33.3742 43 21.5C43 9.62578 33.3742 0 21.5 0Z" fill="#40B3E0"/>
<path d="M32 11.7439L28.2041 31.1258C28.2041 31.1258 27.6733 32.47 26.2133 31.8248L17.4539 25.0236L14.2688 23.4646L8.90703 21.6365C8.90703 21.6365 8.08418 21.3409 8.00448 20.6957C7.92479 20.0506 8.93359 19.7012 8.93359 19.7012L30.2479 11.2334C30.2479 11.2334 31.9998 10.4538 31.9998 11.7442" fill="white"/>
<path d="M16.5837 32C16.5837 32 16.3207 31.9757 15.9929 30.9493C15.6655 29.9231 14 24.5219 14 24.5219L27.241 16.2041C27.241 16.2041 28.0055 15.7449 27.9782 16.2041C27.9782 16.2041 28.1146 16.2851 27.705 16.6632C27.2956 17.0414 17.3035 25.9263 17.3035 25.9263" fill="#D2E5F1"/>
<path d="M20 28.1173L17.422 31.8589C17.422 31.8589 17.2204 32.1023 17 31.9497L17.4937 25" fill="#B5CFE4"/>
</svg>
