<svg width="50" height="51" viewBox="0 0 50 51" fill="none" xmlns="http://www.w3.org/2000/svg">
<path d="M13.2154 43.6969L14.0328 44.1092C17.4391 46.1703 21.2537 47.1322 25.0686 47.1322C37.0578 47.1322 46.8672 37.2386 46.8672 25.1464C46.8672 19.3752 44.551 13.7412 40.4639 9.61884C36.3766 5.49643 30.9268 3.16052 25.0686 3.16052C13.0793 3.16052 3.26974 13.0541 3.40607 25.2839C3.40607 29.4061 4.63224 33.3912 6.67579 36.8263L7.22072 37.6509L5.04103 45.7582L13.2154 43.6969Z" fill="#00E676"/>
<path d="M42.7799 7.42022C38.1477 2.61091 31.7443 0 25.2047 0C11.3082 0 0.136328 11.4051 0.272461 25.2837C0.272461 29.6809 1.49863 33.9408 3.54238 37.7882L0 50.8423L13.2154 47.407C16.8939 49.4683 20.9811 50.4302 25.0686 50.4302C38.8289 50.4302 50.0008 39.0249 50.0008 25.1466C50.0008 18.4132 47.4121 12.0922 42.7801 7.42022H42.7799ZM25.2047 46.1705C21.5262 46.1705 17.8477 45.2088 14.7141 43.285L13.8967 42.8727L5.99473 44.9338L8.03828 37.1015L7.49336 36.2769C1.49863 26.5208 4.35977 13.6037 14.1691 7.55752C23.9785 1.5115 36.649 4.39721 42.6437 14.2908C48.6383 24.1845 45.7771 36.9638 35.968 43.01C32.8342 45.0711 29.0195 46.1703 25.2047 46.1703V46.1705ZM37.1939 30.918L35.6953 30.2309C35.6953 30.2309 33.5156 29.269 32.1531 28.5819C32.0168 28.5819 31.8807 28.4444 31.7443 28.4444C31.3355 28.4444 31.0631 28.5819 30.7906 28.7194C30.7906 28.7194 30.6545 28.8567 28.7471 31.0553C28.6107 31.3301 28.3383 31.4676 28.0658 31.4676H27.9295C27.7934 31.4676 27.5209 31.3301 27.3846 31.1928L26.7033 30.918C25.2047 30.2309 23.8424 29.4063 22.7523 28.3071C22.4799 28.0323 22.0711 27.7575 21.7986 27.4827C20.8449 26.5208 19.8912 25.4214 19.2102 24.1847L19.0738 23.9099C18.9377 23.7724 18.9377 23.6351 18.8014 23.3603C18.8014 23.0855 18.8014 22.8107 18.9377 22.6732C18.9377 22.6732 19.4826 21.9861 19.8912 21.574C20.1639 21.299 20.3 20.8869 20.5725 20.6121C20.8449 20.1998 20.9812 19.6501 20.8449 19.2378C20.7088 18.5507 19.0738 14.8406 18.6652 14.0162C18.3926 13.6039 18.1203 13.4666 17.7115 13.3291H16.2129C15.9402 13.3291 15.668 13.4666 15.3953 13.4666L15.259 13.6039C14.9865 13.7414 14.7141 14.0162 14.4416 14.1535C14.1691 14.4285 14.0328 14.7031 13.7604 14.9781C12.8066 16.2148 12.2617 17.7263 12.2617 19.2378C12.2617 20.3371 12.5342 21.4365 12.943 22.3984L13.0793 22.8107C14.3055 25.4214 15.9402 27.7575 18.1203 29.8186L18.6652 30.3682C19.0738 30.7805 19.4826 31.0553 19.7551 31.4674C22.6162 33.941 25.8859 35.7273 29.5645 36.6892C29.9732 36.8265 30.5182 36.8265 30.927 36.964H32.2893C32.9705 36.964 33.7879 36.6892 34.333 36.4144C34.7416 36.1396 35.0141 36.1396 35.2865 35.8648L35.5592 35.5898C35.8316 35.315 36.1041 35.1777 36.3766 34.9029C36.649 34.6281 36.9215 34.3533 37.0578 34.0783C37.3303 33.5287 37.4664 32.8416 37.6027 32.1547V31.1928C37.6027 31.1928 37.4664 31.0553 37.1939 30.918Z" fill="white"/>
<path d="M42.7799 7.42022C38.1477 2.61091 31.7443 0 25.2047 0C11.3082 0 0.136328 11.4051 0.272461 25.2837C0.272461 29.6809 1.49863 33.9408 3.54238 37.7882L0 50.8423L13.2154 47.407C16.8939 49.4683 20.9811 50.4302 25.0686 50.4302C38.8289 50.4302 50.0008 39.0249 50.0008 25.1466C50.0008 18.4132 47.4121 12.0922 42.7801 7.42022H42.7799ZM25.2047 46.1705C21.5262 46.1705 17.8477 45.2088 14.7141 43.285L13.8967 42.8727L5.99473 44.9338L8.03828 37.1015L7.49336 36.2769C1.49863 26.5208 4.35977 13.6037 14.1691 7.55752C23.9785 1.5115 36.649 4.39721 42.6437 14.2908C48.6383 24.1845 45.7771 36.9638 35.968 43.01C32.8342 45.0711 29.0195 46.1703 25.2047 46.1703V46.1705ZM37.1939 30.918L35.6953 30.2309C35.6953 30.2309 33.5156 29.269 32.1531 28.5819C32.0168 28.5819 31.8807 28.4444 31.7443 28.4444C31.3355 28.4444 31.0631 28.5819 30.7906 28.7194C30.7906 28.7194 30.6545 28.8567 28.7471 31.0553C28.6107 31.3301 28.3383 31.4676 28.0658 31.4676H27.9295C27.7934 31.4676 27.5209 31.3301 27.3846 31.1928L26.7033 30.918C25.2047 30.2309 23.8424 29.4063 22.7523 28.3071C22.4799 28.0323 22.0711 27.7575 21.7986 27.4827C20.8449 26.5208 19.8912 25.4214 19.2102 24.1847L19.0738 23.9099C18.9377 23.7724 18.9377 23.6351 18.8014 23.3603C18.8014 23.0855 18.8014 22.8107 18.9377 22.6732C18.9377 22.6732 19.4826 21.9861 19.8912 21.574C20.1639 21.299 20.3 20.8869 20.5725 20.6121C20.8449 20.1998 20.9812 19.6501 20.8449 19.2378C20.7088 18.5507 19.0738 14.8406 18.6652 14.0162C18.3926 13.6039 18.1203 13.4666 17.7115 13.3291H16.2129C15.9402 13.3291 15.668 13.4666 15.3953 13.4666L15.259 13.6039C14.9865 13.7414 14.7141 14.0162 14.4416 14.1535C14.1691 14.4285 14.0328 14.7031 13.7604 14.9781C12.8066 16.2148 12.2617 17.7263 12.2617 19.2378C12.2617 20.3371 12.5342 21.4365 12.943 22.3984L13.0793 22.8107C14.3055 25.4214 15.9402 27.7575 18.1203 29.8186L18.6652 30.3682C19.0738 30.7805 19.4826 31.0553 19.7551 31.4674C22.6162 33.941 25.8859 35.7273 29.5645 36.6892C29.9732 36.8265 30.5182 36.8265 30.927 36.964H32.2893C32.9705 36.964 33.7879 36.6892 34.333 36.4144C34.7416 36.1396 35.0141 36.1396 35.2865 35.8648L35.5592 35.5898C35.8316 35.315 36.1041 35.1777 36.3766 34.9029C36.649 34.6281 36.9215 34.3533 37.0578 34.0783C37.3303 33.5287 37.4664 32.8416 37.6027 32.1547V31.1928C37.6027 31.1928 37.4664 31.0553 37.1939 30.918Z" fill="white"/>
</svg>
