<svg width="17" height="17" viewBox="0 0 17 17" fill="none" xmlns="http://www.w3.org/2000/svg">
<path d="M16.5619 5.34992C15.9793 4.76734 15.0314 4.76737 14.4486 5.35005C14.2694 5.52945 13.1251 6.67472 12.9503 6.8497V2.90282C12.9503 2.50371 12.7948 2.12852 12.5126 1.84633L11.104 0.437617C10.8218 0.155391 10.4465 0 10.0474 0H1.49518C0.671309 0 0.0010376 0.670272 0.0010376 1.49414V15.5059C0.0010376 16.3297 0.671309 17 1.49518 17H11.4561C12.28 17 12.9503 16.3297 12.9503 15.5059V11.0776L16.5618 7.46297C17.1458 6.87906 17.1459 5.9339 16.5619 5.34992ZM9.96201 0.996094C10.0561 0.996094 10.2374 0.979791 10.3996 1.14196L11.8083 2.55066C11.9663 2.70874 11.9542 2.88196 11.9542 2.98828H9.96201V0.996094ZM11.9542 15.5059C11.9542 15.7805 11.7308 16.0039 11.4561 16.0039H1.49518C1.22056 16.0039 0.997131 15.7805 0.997131 15.5059V1.49414C0.997131 1.21952 1.22056 0.996094 1.49518 0.996094H8.96588V3.48633C8.96588 3.76138 9.18887 3.98438 9.46393 3.98438H11.9542V7.84666C11.9542 7.84666 10.4848 9.3173 10.4847 9.31733L9.78072 10.0214C9.72607 10.076 9.68483 10.1427 9.66039 10.216L8.95602 12.3291C8.89635 12.508 8.94294 12.7054 9.07635 12.8388C9.20992 12.9723 9.40732 13.0187 9.58602 12.9591L11.6991 12.2547C11.7724 12.2303 11.8391 12.1891 11.8937 12.1344L11.9542 12.074V15.5059ZM10.8372 10.3736L11.5415 11.0779L11.2725 11.3469L10.216 11.6991L10.5682 10.6426L10.8372 10.3736ZM12.2458 10.3734L11.5414 9.66905C11.9165 9.29369 13.5822 7.62649 13.9355 7.27291L14.6399 7.97725L12.2458 10.3734ZM15.8574 6.75876L15.3439 7.27261L14.6396 6.56828L15.1532 6.05426C15.3475 5.86005 15.6634 5.86009 15.8576 6.05426C16.0517 6.2485 16.0527 6.56336 15.8574 6.75876Z" fill="white"/>
<path d="M9.4635 4.98047H2.49084C2.21579 4.98047 1.9928 5.20346 1.9928 5.47852C1.9928 5.75357 2.21579 5.97656 2.49084 5.97656H9.4635C9.73856 5.97656 9.96155 5.75357 9.96155 5.47852C9.96155 5.20346 9.73856 4.98047 9.4635 4.98047Z" fill="white"/>
<path d="M7.47131 6.97266H2.49084C2.21579 6.97266 1.9928 7.19565 1.9928 7.4707C1.9928 7.74576 2.21579 7.96875 2.49084 7.96875H7.47131C7.74637 7.96875 7.96936 7.74576 7.96936 7.4707C7.96936 7.19565 7.74637 6.97266 7.47131 6.97266Z" fill="white"/>
<path d="M7.47131 8.96484H2.49084C2.21579 8.96484 1.9928 9.18784 1.9928 9.46289C1.9928 9.73795 2.21579 9.96094 2.49084 9.96094H7.47131C7.74637 9.96094 7.96936 9.73795 7.96936 9.46289C7.96936 9.18784 7.74637 8.96484 7.47131 8.96484Z" fill="white"/>
<path d="M7.47131 10.957H2.49084C2.21579 10.957 1.9928 11.18 1.9928 11.4551C1.9928 11.7301 2.21579 11.9531 2.49084 11.9531H7.47131C7.74637 11.9531 7.96936 11.7301 7.96936 11.4551C7.96936 11.18 7.74637 10.957 7.47131 10.957Z" fill="white"/>
<path d="M9.4635 14.0117H6.47522C6.20017 14.0117 5.97717 14.2347 5.97717 14.5098C5.97717 14.7848 6.20017 15.0078 6.47522 15.0078H9.4635C9.73856 15.0078 9.96155 14.7848 9.96155 14.5098C9.96155 14.2347 9.73856 14.0117 9.4635 14.0117Z" fill="white"/>
</svg>
