<svg width="26" height="26" viewBox="0 0 26 26" fill="none" xmlns="http://www.w3.org/2000/svg">
<path d="M25.7012 10.7618V10.378C25.7012 9.91573 25.5008 9.47704 25.1512 9.17449L22.7833 7.12543C22.4933 6.87455 22.1225 6.73638 21.7391 6.73638H16.1114C15.7645 6.73638 15.4213 6.85209 15.1451 7.06221L12.8307 8.82318L9.77153 9.36598C9.33913 9.44246 8.95407 9.69794 8.71486 10.0673L8.55543 10.3139C8.3543 10.6245 8.248 10.9843 8.248 11.3544C8.248 11.6261 8.30444 11.8899 8.41604 12.1395C8.52754 12.3874 8.68719 12.6049 8.89095 12.7862L9.10595 12.9771C9.43244 13.2673 9.85278 13.4272 10.2896 13.4272H10.779C10.9426 13.7389 11.1827 14.0043 11.4746 14.1981H7.88963V6.96649C7.88963 6.69413 7.66888 6.47339 7.39653 6.47339H2.05459C1.83198 6.47339 1.63699 6.62252 1.57869 6.83735L0.0172038 12.5902C0.00575286 12.6323 0 12.6757 0 12.7193V16.6636C0 16.936 0.220745 17.1567 0.493102 17.1567H1.96644C1.95329 17.2512 1.94594 17.3475 1.94594 17.4455C1.94594 18.593 2.8795 19.5264 4.02694 19.5264C5.17439 19.5264 6.10789 18.5929 6.10789 17.4455C6.10789 17.3475 6.10055 17.2512 6.0874 17.1567H14.4615C14.4483 17.2512 14.441 17.3475 14.441 17.4455C14.441 18.593 15.3745 19.5264 16.522 19.5264C17.6694 19.5264 18.6029 18.5929 18.6029 17.4455C18.6029 17.3475 18.5956 17.2512 18.5824 17.1567H19.1998C19.1866 17.2512 19.1793 17.3475 19.1793 17.4455C19.1793 18.593 20.1129 19.5264 21.2603 19.5264C22.4078 19.5264 23.3412 18.5929 23.3412 17.4455C23.3412 17.3475 23.3339 17.2512 23.3208 17.1567H24.1608C24.4331 17.1567 24.6539 16.936 24.6539 16.6636V14.6912C24.6539 14.4188 24.4331 14.1981 24.1608 14.1981H23.2336C23.5255 14.0043 23.7656 13.7389 23.9292 13.4272H24.1774C24.7532 13.4272 25.3073 13.1551 25.6596 12.6994C25.8791 12.4156 25.9999 12.0617 25.9999 11.7029C26 11.363 25.8951 11.0356 25.7012 10.7618ZM23.2052 8.79469H22.2383L21.975 7.77068C22.0338 7.79539 22.089 7.82882 22.138 7.87117L23.2052 8.79469ZM21.22 8.79469H18.593L18.838 7.72253H20.9443L21.22 8.79469ZM15.7423 7.84701C15.8478 7.76674 15.9789 7.72253 16.1114 7.72253H17.8264L17.5813 8.79469H14.4968L15.7423 7.84701ZM11.5279 12.4635C11.5279 11.8599 12.019 11.3688 12.6226 11.3688C13.2263 11.3688 13.7174 11.8599 13.7174 12.4635C13.7174 13.0672 13.2263 13.5583 12.6226 13.5583C12.019 13.5583 11.5279 13.0672 11.5279 12.4635ZM2.4317 7.45959H4.27344V11.4154L1.18043 12.0697L2.4317 7.45959ZM4.02694 18.5403C3.42328 18.5403 2.93215 18.0492 2.93215 17.4456C2.93215 16.8419 3.42328 16.3508 4.02694 16.3508C4.63061 16.3508 5.12169 16.8419 5.12169 17.4456C5.12169 18.0492 4.63056 18.5403 4.02694 18.5403ZM4.02694 15.3645C3.35961 15.3645 2.7651 15.6806 2.38404 16.1705H0.986204V14.7736H1.80804C2.0804 14.7736 2.30114 14.5529 2.30114 14.2805C2.30114 14.0081 2.0804 13.7874 1.80804 13.7874H0.986204V13.1188L4.86856 12.2975C5.09654 12.2493 5.25959 12.0481 5.25959 11.8151V7.45959H6.90343L6.90315 16.1705H5.6698C5.28874 15.6806 4.69422 15.3645 4.02694 15.3645ZM16.522 18.5403C15.9183 18.5403 15.4272 18.0492 15.4272 17.4456C15.4272 16.8419 15.9184 16.3508 16.522 16.3508C17.1257 16.3508 17.6168 16.8419 17.6168 17.4456C17.6168 18.0492 17.1256 18.5403 16.522 18.5403ZM21.2604 18.5403C20.6566 18.5403 20.1656 18.0492 20.1656 17.4456C20.1656 16.8419 20.6567 16.3508 21.2604 16.3508C21.864 16.3508 22.3551 16.8419 22.3551 17.4456C22.3551 18.0492 21.864 18.5403 21.2604 18.5403ZM23.6677 16.1705H22.9032C22.5222 15.6806 21.9276 15.3645 21.2603 15.3645C20.593 15.3645 19.9985 15.6806 19.6174 16.1705H18.1649C17.7838 15.6806 17.1893 15.3645 16.522 15.3645C15.8546 15.3645 15.2601 15.6806 14.8791 16.1705H7.88936V15.1843H23.6677V16.1705ZM13.7706 14.1981C14.0625 14.0043 14.3026 13.7389 14.4662 13.4272H20.2421C20.4057 13.7389 20.6458 14.0043 20.9377 14.1981H13.7706ZM20.9909 12.4635C20.9909 11.8599 21.482 11.3688 22.0856 11.3688C22.6894 11.3688 23.1804 11.8599 23.1804 12.4635C23.1804 13.0672 22.6893 13.5583 22.0856 13.5583C21.482 13.5583 20.9909 13.0672 20.9909 12.4635ZM24.8795 12.0961C24.7126 12.312 24.4501 12.4409 24.1775 12.4409H24.1662C24.1539 11.3039 23.2256 10.3825 22.0857 10.3825C20.9458 10.3825 20.0175 11.3039 20.0053 12.4409H14.7031C14.6909 11.3039 13.7626 10.3825 12.6227 10.3825C11.4829 10.3825 10.5545 11.3039 10.5423 12.4409H10.2897C10.0947 12.4409 9.90707 12.3695 9.76112 12.2398L9.54623 12.049C9.47955 11.9897 9.4235 11.9217 9.37693 11.8475H9.77947C10.0518 11.8475 10.2726 11.6267 10.2726 11.3544C10.2726 11.082 10.0518 10.8613 9.77947 10.8613H9.3765C9.37891 10.8574 9.38099 10.8534 9.38351 10.8496L9.54294 10.603C9.63362 10.463 9.77947 10.366 9.94356 10.3371L13.0777 9.78095H24.3448L24.5057 9.92028C24.6388 10.0353 24.715 10.2022 24.715 10.378V10.9345C24.715 11.0579 24.7613 11.1769 24.8447 11.2678C24.9537 11.3867 25.0137 11.5412 25.0137 11.7028C25.0138 11.8465 24.9673 11.9825 24.8795 12.0961Z" fill="white"/>
</svg>
