<svg width="23" height="23" viewBox="0 0 23 23" fill="none" xmlns="http://www.w3.org/2000/svg">
<g clip-path="url(#clip0)">
<path d="M19.2413 14.3429C20.2024 12.8833 20.7627 11.1375 20.7627 9.26286C20.7627 4.15527 16.6072 0 11.4996 0C6.39207 0 2.23679 4.15527 2.23679 9.26286C2.23679 11.1375 2.79709 12.8833 3.758 14.3429L0.134766 19.627L4.28074 18.854L5.05389 23L8.47076 18.0167C9.42043 18.3462 10.4394 18.5257 11.4996 18.5257C12.5601 18.5257 13.579 18.3462 14.5285 18.0167L17.9456 23L18.7186 18.854L22.8645 19.627L19.2413 14.3429ZM5.7865 19.5343L5.36483 17.2728L3.10347 17.6947L4.62941 15.4691C5.36027 16.2773 6.23151 16.9561 7.20399 17.4674L5.7865 19.5343ZM3.59235 9.26286C3.59235 4.9028 7.1396 1.35555 11.4996 1.35555C15.8599 1.35555 19.4071 4.9028 19.4071 9.26286C19.4071 13.6231 15.8599 17.1703 11.4996 17.1703C7.1396 17.1703 3.59235 13.6231 3.59235 9.26286ZM17.6345 17.2728L17.2128 19.5343L15.7955 17.4674C16.768 16.9561 17.6392 16.2773 18.3701 15.4691L19.896 17.6945L17.6345 17.2728Z" fill="white"/>
<path d="M9.84846 11.2972L7.64449 9.09335L6.68604 10.0518L9.84846 13.2142L16.3135 6.74934L15.3551 5.79089L9.84846 11.2972Z" fill="white"/>
</g>
<defs>
<clipPath id="clip0">
<rect width="23" height="23" fill="white"/>
</clipPath>
</defs>
</svg>
