<svg width="18" height="18" viewBox="0 0 18 18" fill="none" xmlns="http://www.w3.org/2000/svg">
<g clip-path="url(#clip0)">
<path d="M5.33154 7.80936L5.33088 7.82082C5.28654 8.59759 5.72165 9.32528 6.43968 9.67415L6.44704 9.67775C6.70019 9.79884 6.90768 9.99848 7.03858 10.2467L7.04153 10.2521C7.40333 10.941 8.15163 11.3586 8.94935 11.3167L8.96146 11.3161C9.25077 11.2999 9.53795 11.3745 9.78275 11.5296C10.4582 11.9521 11.3157 11.9521 11.9912 11.5296C12.236 11.3745 12.5231 11.2999 12.8125 11.3161L12.8246 11.3167C13.621 11.3589 14.3703 10.941 14.7329 10.251L14.7347 10.2472C14.8661 9.99831 15.0741 9.79835 15.328 9.6771L15.3339 9.67415C16.0519 9.32512 16.4872 8.59759 16.4427 7.82065L16.4421 7.80985C16.4273 7.53626 16.5033 7.26544 16.6584 7.03946C17.1049 6.38819 17.1049 5.52943 16.6585 4.878C16.5036 4.65218 16.4273 4.38153 16.4421 4.10793L16.4427 4.09648C16.4872 3.31954 16.0519 2.59201 15.3333 2.24281L15.3267 2.23954C15.0741 2.11878 14.8671 1.92013 14.736 1.67255L14.7322 1.66518C14.3703 0.976277 13.621 0.558843 12.8246 0.60057L12.8123 0.601225C12.5231 0.617425 12.236 0.542807 11.9913 0.387681H11.991C11.3155 -0.0348258 10.4581 -0.0348258 9.78258 0.387681C9.53779 0.542643 9.25061 0.617261 8.9613 0.601061L8.94919 0.600407C8.15261 0.558189 7.40349 0.976113 7.04169 1.66485L7.03891 1.66993C6.90784 1.91865 6.70019 2.11845 6.44671 2.23971L6.43984 2.24298C5.72181 2.59185 5.28654 3.31954 5.33105 4.09648L5.3317 4.10728C5.34643 4.38087 5.2705 4.65169 5.11538 4.87751C4.66882 5.52894 4.66882 6.38786 5.11538 7.03913C5.27034 7.26495 5.34643 7.53576 5.33154 7.80936ZM5.66699 5.25812C5.90639 4.90958 6.02372 4.49166 6.00081 4.06948L6.00015 4.05802C5.97659 3.54323 6.26557 3.06508 6.73209 2.8463L6.73782 2.84352C7.12056 2.66025 7.43393 2.35851 7.6316 1.98313L7.63487 1.97691C7.87525 1.51906 8.37876 1.24153 8.91352 1.27L8.9253 1.27049C9.35321 1.29455 9.77784 1.18426 10.1398 0.954841C10.5968 0.66897 11.1768 0.66897 11.6338 0.954841C11.9958 1.18393 12.4204 1.29438 12.8481 1.27066L12.8599 1.27C13.3973 1.24186 13.8983 1.51906 14.1381 1.9756L14.1425 1.98394C14.3402 2.35883 14.6532 2.66008 15.0354 2.84319L15.041 2.84597C15.5149 3.07637 15.8026 3.55206 15.7736 4.05819L15.7729 4.07013C15.75 4.49231 15.8675 4.91007 16.1069 5.25861C16.3962 5.68063 16.3961 6.23699 16.1066 6.65884C15.8674 7.00755 15.75 7.42547 15.7729 7.84765L15.7736 7.85894C15.8026 8.36507 15.5149 8.84092 15.0408 9.07148L15.0359 9.07377C14.6529 9.25737 14.3392 9.55944 14.1413 9.93548L14.1389 9.94039C13.8983 10.3982 13.3957 10.6759 12.8601 10.6473L12.8485 10.6466C12.4205 10.6227 11.9958 10.7332 11.6336 10.9625C11.1768 11.2482 10.5968 11.2482 10.14 10.9625C9.81073 10.7538 9.4288 10.6432 9.03903 10.6435C9.00123 10.6435 8.96326 10.6445 8.9253 10.6466L8.91352 10.6471C8.38579 10.6807 7.88654 10.4045 7.63438 9.93957L7.63094 9.93319C7.4336 9.55846 7.12073 9.25737 6.73864 9.07426L6.73242 9.07116C6.25837 8.84076 5.9707 8.36491 5.99983 7.85894L6.00048 7.847C6.02323 7.42482 5.90574 7.0069 5.6665 6.65852C5.37736 6.2365 5.37752 5.68014 5.66699 5.25845V5.25812Z" fill="white"/>
<path d="M8.72453 9.4232C8.88146 9.52122 9.08813 9.47327 9.18614 9.31635L13.1561 2.95649C13.2209 2.85487 13.2263 2.72626 13.17 2.61973C13.1137 2.51304 13.0044 2.44497 12.884 2.4412C12.7635 2.43744 12.6503 2.49864 12.5875 2.60157L8.61768 8.96142C8.51966 9.11851 8.56744 9.32518 8.72453 9.4232Z" fill="white"/>
<path d="M9.08032 5.97516C9.89637 5.97516 10.5604 5.21802 10.5604 4.28743C10.5604 3.35683 9.89637 2.59985 9.08032 2.59985C8.26427 2.59985 7.6004 3.35683 7.6004 4.28743C7.6004 5.21802 8.26427 5.97516 9.08032 5.97516ZM9.08032 3.2701C9.52688 3.2701 9.89015 3.72648 9.89015 4.28743C9.89015 4.84837 9.52688 5.30491 9.08032 5.30491C8.63392 5.30491 8.27065 4.84821 8.27065 4.28743C8.27065 3.72665 8.63392 3.2701 9.08032 3.2701Z" fill="white"/>
<path d="M11.2134 7.6302C11.2134 8.56079 11.8773 9.31777 12.6934 9.31777C13.5094 9.31777 14.1734 8.56063 14.1734 7.6302C14.1734 6.69993 13.5096 5.94263 12.6935 5.94263C11.8773 5.94263 11.2134 6.69944 11.2134 7.6302ZM13.5032 7.6302C13.5032 8.19114 13.1399 8.64752 12.6934 8.64752C12.247 8.64752 11.8837 8.19114 11.8837 7.6302C11.8837 7.06926 12.247 6.61288 12.6934 6.61288C13.1399 6.61288 13.5032 7.06893 13.5032 7.6302Z" fill="white"/>
<path d="M17.9565 13.1951C17.5128 12.4076 16.5287 12.1076 15.7211 12.5138L13.0959 13.7541C12.7335 13.0801 12.0382 12.651 11.273 12.6294L8.84959 12.5627C8.46586 12.5517 8.08934 12.4544 7.74816 12.2783L7.50156 12.1505C6.23895 11.4923 4.734 11.494 3.47269 12.1547L3.48808 11.5961C3.49315 11.411 3.34735 11.2569 3.16228 11.2518L0.504841 11.1787C0.319769 11.1736 0.165788 11.3194 0.160716 11.5045L0.000189489 17.3363C-0.00488323 17.5213 0.140916 17.6755 0.325987 17.6805L2.98342 17.7537H2.99275C3.17422 17.7535 3.32264 17.609 3.32771 17.4277L3.33524 17.1487L4.02562 16.7791C4.2966 16.6333 4.61356 16.5986 4.90958 16.6824L9.03204 17.8394C9.03924 17.8416 9.04644 17.8432 9.0538 17.8448C9.35178 17.9072 9.65549 17.9384 9.96002 17.9383C10.6047 17.9386 11.2419 17.7997 11.8279 17.5306C11.8423 17.5241 11.8562 17.5166 11.8695 17.5081L17.8467 13.6415C17.9958 13.5453 18.0439 13.3494 17.9565 13.1951ZM0.67944 17.0196L0.821475 11.8581L2.80899 11.9127L2.66679 17.0744L0.67944 17.0196ZM11.5258 16.9317C10.7978 17.2603 9.98472 17.351 9.20222 17.1909L5.09072 16.0372C4.62812 15.9062 4.13264 15.9606 3.70931 16.1882L3.35651 16.377L3.45109 12.9451C4.56889 12.2015 6.00266 12.1251 7.19327 12.7455L7.43987 12.8733C7.87088 13.0958 8.34641 13.2187 8.83126 13.2326L11.2547 13.2994C11.9354 13.3188 12.5135 13.8035 12.6517 14.4705L9.04186 14.3712C8.85679 14.3661 8.70281 14.5119 8.69773 14.697C8.69266 14.882 8.83846 15.0362 9.02353 15.0413L13.0072 15.1509H13.0167C13.198 15.1507 13.3464 15.0062 13.3515 14.8249C13.3556 14.6793 13.3446 14.5335 13.3191 14.3902L16.0112 13.1179L16.0191 13.1141C16.401 12.9207 16.863 12.9854 17.177 13.2761L11.5258 16.9317Z" fill="white"/>
</g>
<defs>
<clipPath id="clip0">
<rect width="18" height="18" fill="white"/>
</clipPath>
</defs>
</svg>
