<svg width="20" height="20" viewBox="0 0 20 20" fill="none" xmlns="http://www.w3.org/2000/svg">
<path d="M15.3125 10.3125C15.3131 9.87786 15.2004 9.45054 14.9855 9.07273C14.7705 8.69492 14.4608 8.37968 14.0868 8.15811C13.7128 7.93655 13.2876 7.81632 12.853 7.80929C12.4183 7.80225 11.9894 7.90866 11.6085 8.11801C11.2275 8.32736 10.9077 8.63241 10.6807 9.00307C10.4536 9.37373 10.3271 9.79718 10.3137 10.2316C10.3003 10.6661 10.4003 11.0966 10.604 11.4806C10.8077 11.8646 11.108 12.1888 11.4753 12.4213C10.8646 12.6384 10.3142 12.9973 9.86919 13.4685C9.4242 13.9397 9.0974 14.5098 8.91563 15.1319C8.60446 14.91 8.26348 14.7333 7.90281 14.6069C8.35974 14.3167 8.71014 13.886 8.90134 13.3796C9.09255 12.8732 9.11422 12.3184 8.96311 11.7987C8.812 11.2789 8.49627 10.8222 8.06337 10.4972C7.63048 10.1723 7.1038 9.99657 6.5625 9.99657C6.0212 9.99657 5.49452 10.1723 5.06163 10.4972C4.62873 10.8222 4.313 11.2789 4.16189 11.7987C4.01078 12.3184 4.03245 12.8732 4.22366 13.3796C4.41486 13.886 4.76526 14.3167 5.22219 14.6069C4.42775 14.8851 3.73923 15.403 3.25163 16.0891C2.76404 16.7753 2.50142 17.5958 2.5 18.4375V19.0625C2.5 19.1454 2.53292 19.2249 2.59153 19.2835C2.65013 19.3421 2.72962 19.375 2.8125 19.375H10.3125C10.3954 19.375 10.4749 19.3421 10.5335 19.2835C10.5921 19.2249 10.625 19.1454 10.625 19.0625V18.4375C10.6248 18.013 10.5577 17.5912 10.4262 17.1875H16.5625C16.6454 17.1875 16.7249 17.1546 16.7835 17.096C16.8421 17.0374 16.875 16.9579 16.875 16.875V16.25C16.8736 15.4083 16.611 14.5877 16.1234 13.9016C15.6358 13.2155 14.9473 12.6976 14.1528 12.4194C14.5078 12.1942 14.8002 11.883 15.0029 11.5147C15.2056 11.1464 15.3121 10.7329 15.3125 10.3125ZM4.6875 12.5C4.6875 12.1292 4.79747 11.7667 5.00349 11.4583C5.20952 11.15 5.50236 10.9097 5.84497 10.7678C6.18758 10.6258 6.56458 10.5887 6.92829 10.6611C7.29201 10.7334 7.6261 10.912 7.88833 11.1742C8.15055 11.4364 8.32913 11.7705 8.40147 12.1342C8.47382 12.498 8.43669 12.875 8.29477 13.2176C8.15286 13.5602 7.91254 13.853 7.60419 14.059C7.29585 14.2651 6.93334 14.375 6.5625 14.375C6.06537 14.3745 5.58875 14.1768 5.23722 13.8253C4.8857 13.4738 4.688 12.9972 4.6875 12.5ZM10 18.75H3.125V18.4375C3.125 17.5259 3.48716 16.6515 4.13182 16.0069C4.77648 15.3622 5.65082 15 6.5625 15C7.47418 15 8.34852 15.3622 8.99318 16.0069C9.63784 16.6515 10 17.5259 10 18.4375V18.75ZM16.25 16.25V16.5625H10.1628C9.97487 16.202 9.73409 15.8716 9.44844 15.5822C9.61328 14.7451 10.0839 13.9993 10.7687 13.4903C11.4534 12.9813 12.3032 12.7454 13.1523 12.8288C14.0015 12.9122 14.7892 13.3088 15.3618 13.9413C15.9345 14.5737 16.2511 15.3968 16.25 16.25ZM12.8125 12.1875C12.4417 12.1875 12.0791 12.0776 11.7708 11.8715C11.4625 11.6655 11.2221 11.3727 11.0802 11.0301C10.9383 10.6875 10.9012 10.3105 10.9735 9.94674C11.0459 9.58303 11.2245 9.24893 11.4867 8.98671C11.7489 8.72449 12.083 8.54591 12.4467 8.47356C12.8104 8.40122 13.1874 8.43835 13.53 8.58026C13.8726 8.72218 14.1655 8.9625 14.3715 9.27084C14.5775 9.57918 14.6875 9.9417 14.6875 10.3125C14.687 10.8097 14.4893 11.2863 14.1378 11.6378C13.7863 11.9893 13.3096 12.187 12.8125 12.1875Z" fill="white"/>
<path d="M1.5625 8.4375H2.07438L3.8625 9.9275C3.90813 9.9655 3.96363 9.98972 4.02253 9.99731C4.08142 10.0049 4.14125 9.99557 4.19503 9.97039C4.2488 9.94521 4.29429 9.90522 4.32616 9.85512C4.35804 9.80502 4.37498 9.74688 4.375 9.6875V8.4375H8.4375C8.68614 8.4375 8.9246 8.33873 9.10041 8.16291C9.27623 7.9871 9.375 7.74864 9.375 7.5V4.375C9.375 4.12636 9.27623 3.8879 9.10041 3.71209C8.9246 3.53627 8.68614 3.4375 8.4375 3.4375H6.875V4.0625H8.4375C8.52038 4.0625 8.59987 4.09542 8.65847 4.15403C8.71708 4.21263 8.75 4.29212 8.75 4.375V7.5C8.75 7.58288 8.71708 7.66237 8.65847 7.72097C8.59987 7.77958 8.52038 7.8125 8.4375 7.8125H4.0625C3.97962 7.8125 3.90013 7.84542 3.84153 7.90403C3.78292 7.96263 3.75 8.04212 3.75 8.125V9.02031L2.3875 7.885C2.33136 7.83819 2.26059 7.81253 2.1875 7.8125H1.5625C1.47962 7.8125 1.40013 7.77958 1.34153 7.72097C1.28292 7.66237 1.25 7.58288 1.25 7.5V4.375C1.25 4.29212 1.28292 4.21263 1.34153 4.15403C1.40013 4.09542 1.47962 4.0625 1.5625 4.0625V3.4375C1.31386 3.4375 1.0754 3.53627 0.899587 3.71209C0.723772 3.8879 0.625 4.12636 0.625 4.375V7.5C0.625 7.74864 0.723772 7.9871 0.899587 8.16291C1.0754 8.33873 1.31386 8.4375 1.5625 8.4375Z" fill="white"/>
<path d="M18.4375 0.625H11.5625C11.3139 0.625 11.0754 0.723772 10.8996 0.899587C10.7238 1.0754 10.625 1.31386 10.625 1.5625V4.6875C10.625 4.93614 10.7238 5.1746 10.8996 5.35041C11.0754 5.52623 11.3139 5.625 11.5625 5.625H15.625V6.875C15.625 6.93438 15.642 6.99252 15.6738 7.04262C15.7057 7.09272 15.7512 7.13271 15.805 7.15789C15.8587 7.18307 15.9186 7.19241 15.9775 7.18482C16.0364 7.17722 16.0919 7.153 16.1375 7.115L17.9256 5.625H18.4375C18.6861 5.625 18.9246 5.52623 19.1004 5.35041C19.2762 5.1746 19.375 4.93614 19.375 4.6875V1.5625C19.375 1.31386 19.2762 1.0754 19.1004 0.899587C18.9246 0.723772 18.6861 0.625 18.4375 0.625ZM18.75 4.6875C18.75 4.77038 18.7171 4.84987 18.6585 4.90847C18.5999 4.96708 18.5204 5 18.4375 5H17.8125C17.7394 5.00003 17.6686 5.02569 17.6125 5.0725L16.25 6.20781V5.3125C16.25 5.22962 16.2171 5.15013 16.1585 5.09153C16.0999 5.03292 16.0204 5 15.9375 5H11.5625C11.4796 5 11.4001 4.96708 11.3415 4.90847C11.2829 4.84987 11.25 4.77038 11.25 4.6875V1.5625C11.25 1.47962 11.2829 1.40013 11.3415 1.34153C11.4001 1.28292 11.4796 1.25 11.5625 1.25H18.4375C18.5204 1.25 18.5999 1.28292 18.6585 1.34153C18.7171 1.40013 18.75 1.47962 18.75 1.5625V4.6875Z" fill="white"/>
<path d="M12.5 2.1875C12.3146 2.1875 12.1333 2.24248 11.9792 2.3455C11.825 2.44851 11.7048 2.59493 11.6339 2.76623C11.5629 2.93754 11.5443 3.12604 11.5805 3.3079C11.6167 3.48975 11.706 3.6568 11.8371 3.78791C11.9682 3.91902 12.1352 4.00831 12.3171 4.04449C12.499 4.08066 12.6875 4.06209 12.8588 3.99114C13.0301 3.92018 13.1765 3.80002 13.2795 3.64585C13.3825 3.49168 13.4375 3.31042 13.4375 3.125C13.4375 2.87636 13.3387 2.6379 13.1629 2.46209C12.9871 2.28627 12.7486 2.1875 12.5 2.1875ZM12.5 3.4375C12.4382 3.4375 12.3778 3.41917 12.3264 3.38483C12.275 3.3505 12.2349 3.30169 12.2113 3.24459C12.1876 3.18749 12.1814 3.12465 12.1935 3.06403C12.2056 3.00342 12.2353 2.94773 12.279 2.90403C12.3227 2.86033 12.3784 2.83056 12.439 2.8185C12.4997 2.80645 12.5625 2.81264 12.6196 2.83629C12.6767 2.85994 12.7255 2.89999 12.7598 2.95138C12.7942 3.00277 12.8125 3.06319 12.8125 3.125C12.8125 3.20788 12.7796 3.28737 12.721 3.34597C12.6624 3.40458 12.5829 3.4375 12.5 3.4375Z" fill="white"/>
<path d="M15 2.1875C14.8146 2.1875 14.6333 2.24248 14.4792 2.3455C14.325 2.44851 14.2048 2.59493 14.1339 2.76623C14.0629 2.93754 14.0443 3.12604 14.0805 3.3079C14.1167 3.48975 14.206 3.6568 14.3371 3.78791C14.4682 3.91902 14.6352 4.00831 14.8171 4.04449C14.999 4.08066 15.1875 4.06209 15.3588 3.99114C15.5301 3.92018 15.6765 3.80002 15.7795 3.64585C15.8825 3.49168 15.9375 3.31042 15.9375 3.125C15.9375 2.87636 15.8387 2.6379 15.6629 2.46209C15.4871 2.28627 15.2486 2.1875 15 2.1875ZM15 3.4375C14.9382 3.4375 14.8778 3.41917 14.8264 3.38483C14.775 3.3505 14.7349 3.30169 14.7113 3.24459C14.6876 3.18749 14.6814 3.12465 14.6935 3.06403C14.7056 3.00342 14.7353 2.94773 14.779 2.90403C14.8227 2.86033 14.8784 2.83056 14.939 2.8185C14.9997 2.80645 15.0625 2.81264 15.1196 2.83629C15.1767 2.85994 15.2255 2.89999 15.2598 2.95138C15.2942 3.00277 15.3125 3.06319 15.3125 3.125C15.3125 3.20788 15.2796 3.28737 15.221 3.34597C15.1624 3.40458 15.0829 3.4375 15 3.4375Z" fill="white"/>
<path d="M17.5 2.1875C17.3146 2.1875 17.1333 2.24248 16.9792 2.3455C16.825 2.44851 16.7048 2.59493 16.6339 2.76623C16.5629 2.93754 16.5443 3.12604 16.5805 3.3079C16.6167 3.48975 16.706 3.6568 16.8371 3.78791C16.9682 3.91902 17.1352 4.00831 17.3171 4.04449C17.499 4.08066 17.6875 4.06209 17.8588 3.99114C18.0301 3.92018 18.1765 3.80002 18.2795 3.64585C18.3825 3.49168 18.4375 3.31042 18.4375 3.125C18.4375 2.87636 18.3387 2.6379 18.1629 2.46209C17.9871 2.28627 17.7486 2.1875 17.5 2.1875ZM17.5 3.4375C17.4382 3.4375 17.3778 3.41917 17.3264 3.38483C17.275 3.3505 17.2349 3.30169 17.2113 3.24459C17.1876 3.18749 17.1814 3.12465 17.1935 3.06403C17.2056 3.00342 17.2353 2.94773 17.279 2.90403C17.3227 2.86033 17.3784 2.83056 17.439 2.8185C17.4997 2.80645 17.5625 2.81264 17.6196 2.83629C17.6767 2.85994 17.7255 2.89999 17.7598 2.95138C17.7942 3.00277 17.8125 3.06319 17.8125 3.125C17.8125 3.20788 17.7796 3.28737 17.721 3.34597C17.6624 3.40458 17.5829 3.4375 17.5 3.4375Z" fill="white"/>
<path d="M1.56597 4.90629C1.57886 5.02912 1.6317 5.14434 1.71637 5.23426C1.80104 5.32418 1.91287 5.38385 2.03472 5.4041L2.82784 5.54129L2.9469 6.67816C2.9583 6.79627 3.00675 6.90775 3.08533 6.99665C3.16391 7.08556 3.26859 7.14734 3.3844 7.17316C3.42736 7.18293 3.47128 7.18786 3.51534 7.18785C3.61177 7.18793 3.70658 7.16309 3.79057 7.11572C3.87456 7.06836 3.94489 7.00009 3.99472 6.91754L4.64378 5.86722L5.84471 6.15254C5.96013 6.18002 6.08124 6.1707 6.19109 6.12589C6.30094 6.08108 6.39402 6.00302 6.45728 5.90265C6.52054 5.80229 6.55081 5.68464 6.54385 5.56621C6.53689 5.44778 6.49304 5.33449 6.41846 5.24222L5.69972 4.35191L6.1644 3.69566C6.23545 3.59502 6.27189 3.47402 6.26825 3.35088C6.26462 3.22774 6.2211 3.10911 6.14424 3.01283C6.06738 2.91656 5.96133 2.84784 5.84206 2.81701C5.72278 2.78619 5.59672 2.79493 5.48284 2.84191L4.5969 3.20754L3.73597 2.2741C3.65713 2.18858 3.55395 2.1293 3.44036 2.10426C3.32677 2.07923 3.20823 2.08965 3.10075 2.1341C2.99326 2.17856 2.90201 2.25492 2.83929 2.35288C2.77657 2.45084 2.74542 2.56569 2.75003 2.68191L2.79972 3.95066L1.91409 4.31691C1.79947 4.36339 1.70331 4.44626 1.64041 4.55276C1.5775 4.65925 1.55135 4.78347 1.56597 4.90629ZM3.07534 4.51472C3.18254 4.47 3.27352 4.3936 3.33613 4.29576C3.39873 4.19792 3.42996 4.0833 3.42565 3.96722L3.38065 2.81097L4.16409 3.66035C4.24318 3.74553 4.34635 3.80459 4.45985 3.82966C4.57335 3.85472 4.69179 3.84461 4.7994 3.80066L5.54128 3.49379L5.16628 4.02504C5.09531 4.12628 5.05912 4.24782 5.06312 4.37139C5.06712 4.49497 5.1111 4.61391 5.18847 4.71035L5.83065 5.50535L4.75003 5.25004C4.63379 5.22253 4.51184 5.23229 4.40146 5.27795C4.29109 5.3236 4.19787 5.40283 4.13503 5.50441L3.55159 6.44847L3.44503 5.43222C3.43159 5.30936 3.37861 5.19418 3.29408 5.10401C3.20955 5.01384 3.09802 4.95356 2.97628 4.93222L2.33347 4.82129L3.07534 4.51472Z" fill="white"/>
<path d="M6.875 0.625H7.5V1.25H6.875V0.625Z" fill="white"/>
<path d="M6.25 1.25H6.875V1.875H6.25V1.25Z" fill="white"/>
<path d="M7.5 1.25H8.125V1.875H7.5V1.25Z" fill="white"/>
<path d="M6.875 1.875H7.5V2.5H6.875V1.875Z" fill="white"/>
<path d="M7.5 4.375H8.125V5H7.5V4.375Z" fill="white"/>
</svg>
