<svg width="25" height="25" viewBox="0 0 25 25" fill="none" xmlns="http://www.w3.org/2000/svg">
<path d="M17.708 2.8841C17.1216 2.8841 16.5511 2.95378 16.0044 3.08532C14.5139 1.92697 12.6691 1.28493 10.7667 1.26979C8.44452 1.25197 6.25595 2.14201 4.60707 3.77785C2.95604 5.41579 2.04681 7.59953 2.04681 9.92673C2.04681 10.5021 1.90443 11.0751 1.63505 11.5837L0.170349 14.3488C-0.0674436 14.796 -0.0556761 15.324 0.201843 15.7612C0.459461 16.1986 0.91576 16.4651 1.42245 16.4739L2.04447 16.474V18.6876C2.04447 20.0112 3.12035 21.0881 4.44271 21.0881H6.00145V21.7354C6.00145 22.8355 6.89564 23.7304 7.99472 23.7304H14.8453C15.9443 23.7304 16.8385 22.8355 16.8385 21.7354V20.3019C16.8385 19.3496 16.9361 18.3973 17.129 17.4627C17.3201 17.4778 17.5131 17.4855 17.708 17.4855C21.7288 17.4855 25 14.2104 25 10.1847C25 6.1592 21.7288 2.8841 17.708 2.8841ZM15.3737 20.302V21.7355C15.3737 22.0278 15.1367 22.2656 14.8453 22.2656H7.99472C7.70331 22.2656 7.46625 22.0278 7.46625 21.7355V20.909C7.46625 20.2 6.88988 19.6233 6.18134 19.6233H4.44271C3.92802 19.6233 3.50927 19.2035 3.50927 18.6876V16.2948C3.50927 15.5859 2.9329 15.0091 2.22435 15.0091H1.47811L2.92938 12.2693C3.31029 11.5503 3.51161 10.7402 3.51161 9.92663C3.51161 7.99289 4.26703 6.17853 5.63871 4.81769C7.00829 3.45895 8.82435 2.72053 10.7551 2.73449C12.0193 2.74455 13.2526 3.08752 14.3287 3.71642C12.0047 4.9384 10.416 7.37931 10.416 10.1847C10.416 13.5088 12.6463 16.3211 15.6874 17.2004C15.4791 18.2216 15.3737 19.2617 15.3737 20.302ZM17.708 16.0207C14.4949 16.0207 11.8808 13.4028 11.8808 10.1848C11.8808 6.96691 14.4949 4.34894 17.708 4.34894C20.9211 4.34894 23.5352 6.96691 23.5352 10.1848C23.5352 13.4028 20.9211 16.0207 17.708 16.0207Z" fill="white"/>
<path d="M17.847 5.60078C17.0866 5.56274 16.3423 5.84824 15.8051 6.3855C15.5191 6.67153 15.5191 7.13525 15.8051 7.42129C16.0911 7.70732 16.5549 7.70732 16.8408 7.42129C17.0893 7.17285 17.4207 7.04546 17.7728 7.06377C18.3799 7.09453 18.8887 7.59292 18.9311 8.19849C18.9692 8.74263 18.6544 9.23906 18.1476 9.43379C17.4465 9.70322 16.9755 10.3978 16.9755 11.1621C16.9755 11.5666 17.3034 11.8945 17.7079 11.8945C18.1124 11.8945 18.4404 11.5666 18.4404 11.1621C18.4404 10.9997 18.5339 10.8546 18.6731 10.8011C19.7849 10.3739 20.4758 9.28677 20.3923 8.09605C20.2975 6.74219 19.2032 5.66948 17.847 5.60078Z" fill="white"/>
<path d="M17.708 12.5459C17.3035 12.5459 16.9756 12.8738 16.9756 13.2783V14.04C16.9756 14.4445 17.3035 14.7724 17.708 14.7724C18.1125 14.7724 18.4404 14.4445 18.4404 14.04V13.2783C18.4404 12.8738 18.1125 12.5459 17.708 12.5459Z" fill="white"/>
</svg>
