<svg width="19" height="19" viewBox="0 0 19 19" fill="none" xmlns="http://www.w3.org/2000/svg">
<g clip-path="url(#clip0)">
<path d="M15.3846 7.00258V7.32454C15.5675 7.31023 16.0215 7.31932 16.5025 7.45571V7.00258C16.5026 3.14133 13.3612 0 9.49996 0C5.63867 0 2.49738 3.14133 2.49738 7.00258V7.45571C2.89958 7.34167 3.35159 7.3039 3.61528 7.32454V7.00258C3.61528 3.75805 6.25505 1.11791 9.49996 1.11791C12.7449 1.11791 15.3846 3.75805 15.3846 7.00258Z" fill="white"/>
<path d="M15.3847 14.5347C15.3847 16.0914 14.1702 17.1492 12.8288 17.1492H11.5262C11.3177 16.7156 10.8745 16.4164 10.3613 16.4164H8.63878C7.92531 16.4164 7.34692 16.9948 7.34692 17.7082C7.34692 18.4217 7.92531 19.0001 8.63878 19.0001H10.3613C10.8745 19.0001 11.3179 18.7007 11.5263 18.2671H12.8288C14.7082 18.2671 16.5026 16.8303 16.5026 14.4017C16.0599 14.5288 15.6136 14.5537 15.3847 14.5347Z" fill="white"/>
<path d="M3.48528 8.43799C2.05216 8.43799 0.92024 9.63707 0.997171 11.0684C1.06647 12.3626 2.13743 13.3963 3.43495 13.4216C3.81413 13.4311 4.04309 13.1547 4.04309 12.8612V8.99882C4.04313 8.70015 3.80869 8.43799 3.48528 8.43799Z" fill="white"/>
<path d="M15.5054 8.43799C15.1986 8.44075 14.9569 8.69326 14.9569 8.99879V12.8612C14.9569 13.1522 15.1834 13.4314 15.5647 13.4217C16.8528 13.397 17.9333 12.3712 18.0028 11.0684C18.0786 9.65853 16.974 8.43799 15.5054 8.43799Z" fill="white"/>
<path d="M12.1164 11.0442C12.7095 10.4511 12.7095 9.4894 12.1164 8.89627C11.5232 8.30313 10.5615 8.30313 9.9684 8.89627L9.50003 9.36464L9.03166 8.89627C8.43853 8.30313 7.47683 8.30313 6.88369 8.89627C6.29056 9.4894 6.29056 10.4511 6.88369 11.0442L9.23653 13.3971C9.38205 13.5426 9.61798 13.5426 9.7635 13.3971L12.1164 11.0442Z" fill="white"/>
</g>
<defs>
<clipPath id="clip0">
<rect width="19" height="19" fill="white"/>
</clipPath>
</defs>
</svg>
