<svg width="312" height="105" viewBox="0 0 312 105" fill="none" xmlns="http://www.w3.org/2000/svg">
<path d="M29.1846 19.0146V87H12.2197V50.5508C12.2197 45.2878 12.0938 42.1243 11.8418 41.0605C11.5898 39.9967 10.89 39.1989 9.74219 38.667C8.6224 38.1071 6.10286 37.8271 2.18359 37.8271H0.503906V29.8906C8.70638 28.127 14.9352 24.5016 19.1904 19.0146H29.1846ZM71.8906 19.0146V32.6201H61.3926V87H43.7139V32.6201H33.2578V19.0146H71.8906Z" fill="#F05454"/>
<path d="M83.6914 43.1943L83.332 47.1025C84.6497 44.3024 86.5589 42.82 89.0596 42.6553V53.1445C87.3975 53.1445 86.1771 53.3691 85.3984 53.8184C84.6198 54.2676 84.1406 54.8965 83.9609 55.7051C83.7812 56.4987 83.6914 58.3405 83.6914 61.2305V73H74.6172V43.1943H83.6914ZM99.2119 54.7393H90.6992V52.7402C90.6992 50.4342 90.9613 48.6598 91.4854 47.417C92.0244 46.1592 93.0951 45.0511 94.6973 44.0928C96.2995 43.1344 98.3809 42.6553 100.941 42.6553C104.011 42.6553 106.325 43.2018 107.882 44.2949C109.439 45.373 110.375 46.7057 110.689 48.293C111.004 49.8652 111.161 53.1146 111.161 58.041V73H102.334V70.3496C101.78 71.4128 101.061 72.2139 100.178 72.7529C99.3092 73.277 98.2686 73.5391 97.0557 73.5391C95.4684 73.5391 94.0085 73.0973 92.6758 72.2139C91.3581 71.3154 90.6992 69.3613 90.6992 66.3516V63.9033C90.6992 61.6722 91.0511 60.1523 91.7549 59.3438C92.4587 58.5352 94.2031 57.5918 96.9883 56.5137C99.9681 55.3457 101.563 54.5596 101.772 54.1553C101.982 53.751 102.087 52.9274 102.087 51.6846C102.087 50.1273 101.967 49.1165 101.728 48.6523C101.503 48.1732 101.121 47.9336 100.582 47.9336C99.9681 47.9336 99.5863 48.1357 99.4365 48.54C99.2868 48.9294 99.2119 49.9551 99.2119 51.6172V54.7393ZM102.087 58.8271C100.634 59.8903 99.7884 60.7812 99.5488 61.5C99.3242 62.2188 99.2119 63.252 99.2119 64.5996C99.2119 66.1419 99.3092 67.1377 99.5039 67.5869C99.7135 68.0361 100.118 68.2607 100.717 68.2607C101.286 68.2607 101.653 68.0885 101.817 67.7441C101.997 67.3848 102.087 66.4564 102.087 64.959V58.8271ZM123.515 43.1943L123.357 45.9346C124.016 44.8415 124.817 44.0254 125.761 43.4863C126.719 42.9323 127.82 42.6553 129.062 42.6553C130.62 42.6553 131.893 43.0221 132.881 43.7559C133.869 44.4896 134.506 45.418 134.79 46.541C135.075 47.6491 135.217 49.5059 135.217 52.1113V73H126.143V52.3584C126.143 50.307 126.075 49.0566 125.94 48.6074C125.806 48.1582 125.431 47.9336 124.817 47.9336C124.174 47.9336 123.769 48.1956 123.604 48.7197C123.44 49.2288 123.357 50.6064 123.357 52.8525V73H114.283V43.1943H123.515ZM156.892 52.7178H148.851V51.1006C148.851 49.723 148.768 48.8545 148.604 48.4951C148.454 48.1208 148.064 47.9336 147.436 47.9336C146.926 47.9336 146.545 48.1058 146.29 48.4502C146.035 48.7796 145.908 49.2812 145.908 49.9551C145.908 50.8685 145.968 51.5423 146.088 51.9766C146.223 52.3958 146.604 52.86 147.233 53.3691C147.877 53.8783 149.188 54.6195 151.164 55.5928C153.799 56.8805 155.529 58.0934 156.353 59.2314C157.176 60.3695 157.588 62.0241 157.588 64.1953C157.588 66.6211 157.273 68.4554 156.645 69.6982C156.016 70.9261 154.96 71.877 153.478 72.5508C152.01 73.2096 150.236 73.5391 148.154 73.5391C145.848 73.5391 143.872 73.1797 142.225 72.4609C140.592 71.7422 139.469 70.7689 138.855 69.541C138.242 68.3132 137.935 66.4564 137.935 63.9707V62.5332H145.976V64.4199C145.976 66.0221 146.073 67.0628 146.268 67.542C146.477 68.0212 146.882 68.2607 147.48 68.2607C148.124 68.2607 148.574 68.1035 148.828 67.7891C149.083 67.4596 149.21 66.7783 149.21 65.7451C149.21 64.3226 149.045 63.4316 148.716 63.0723C148.371 62.7129 146.612 61.6497 143.438 59.8828C140.772 58.3854 139.147 57.0303 138.563 55.8174C137.979 54.5895 137.688 53.137 137.688 51.46C137.688 49.0791 138.002 47.3271 138.631 46.2041C139.26 45.0661 140.323 44.1901 141.82 43.5762C143.333 42.9622 145.085 42.6553 147.076 42.6553C149.053 42.6553 150.73 42.9098 152.107 43.4189C153.5 43.9131 154.563 44.5719 155.297 45.3955C156.046 46.2191 156.495 46.9827 156.645 47.6865C156.809 48.3903 156.892 49.4909 156.892 50.9883V52.7178ZM168.976 43.1943L168.818 46.0244C169.522 44.9014 170.361 44.0628 171.334 43.5088C172.307 42.9398 173.415 42.6553 174.658 42.6553C177.084 42.6553 178.993 43.7783 180.386 46.0244C181.149 44.9014 182.01 44.0628 182.969 43.5088C183.927 42.9398 184.99 42.6553 186.158 42.6553C187.701 42.6553 188.973 43.0296 189.977 43.7783C190.995 44.527 191.646 45.4479 191.931 46.541C192.215 47.6191 192.357 49.3786 192.357 51.8193V73H183.553V53.5713C183.553 51.0257 183.463 49.4535 183.283 48.8545C183.118 48.2406 182.722 47.9336 182.093 47.9336C181.449 47.9336 181.03 48.2331 180.835 48.832C180.655 49.431 180.565 51.0107 180.565 53.5713V73H171.761V54.0654C171.761 51.1455 171.686 49.3936 171.536 48.8096C171.401 48.2256 171.012 47.9336 170.368 47.9336C169.964 47.9336 169.619 48.0908 169.335 48.4053C169.05 48.7048 168.893 49.0791 168.863 49.5283C168.833 49.9626 168.818 50.8984 168.818 52.3359V73H160.014V43.1943H168.976ZM204.846 36.6357V41.375H195.502V36.6357H204.846ZM204.846 43.1943V73H195.502V43.1943H204.846ZM226.655 52.7178H218.614V51.1006C218.614 49.723 218.532 48.8545 218.367 48.4951C218.217 48.1208 217.828 47.9336 217.199 47.9336C216.69 47.9336 216.308 48.1058 216.054 48.4502C215.799 48.7796 215.672 49.2812 215.672 49.9551C215.672 50.8685 215.732 51.5423 215.852 51.9766C215.986 52.3958 216.368 52.86 216.997 53.3691C217.641 53.8783 218.951 54.6195 220.928 55.5928C223.563 56.8805 225.293 58.0934 226.116 59.2314C226.94 60.3695 227.352 62.0241 227.352 64.1953C227.352 66.6211 227.037 68.4554 226.408 69.6982C225.779 70.9261 224.724 71.877 223.241 72.5508C221.774 73.2096 219.999 73.5391 217.918 73.5391C215.612 73.5391 213.635 73.1797 211.988 72.4609C210.356 71.7422 209.233 70.7689 208.619 69.541C208.005 68.3132 207.698 66.4564 207.698 63.9707V62.5332H215.739V64.4199C215.739 66.0221 215.837 67.0628 216.031 67.542C216.241 68.0212 216.645 68.2607 217.244 68.2607C217.888 68.2607 218.337 68.1035 218.592 67.7891C218.846 67.4596 218.974 66.7783 218.974 65.7451C218.974 64.3226 218.809 63.4316 218.479 63.0723C218.135 62.7129 216.376 61.6497 213.201 59.8828C210.536 58.3854 208.911 57.0303 208.327 55.8174C207.743 54.5895 207.451 53.137 207.451 51.46C207.451 49.0791 207.766 47.3271 208.395 46.2041C209.023 45.0661 210.087 44.1901 211.584 43.5762C213.096 42.9622 214.848 42.6553 216.84 42.6553C218.816 42.6553 220.493 42.9098 221.871 43.4189C223.264 43.9131 224.327 44.5719 225.061 45.3955C225.809 46.2191 226.258 46.9827 226.408 47.6865C226.573 48.3903 226.655 49.4909 226.655 50.9883V52.7178ZM248.308 52.7178H240.267V51.1006C240.267 49.723 240.184 48.8545 240.02 48.4951C239.87 48.1208 239.48 47.9336 238.852 47.9336C238.342 47.9336 237.961 48.1058 237.706 48.4502C237.451 48.7796 237.324 49.2812 237.324 49.9551C237.324 50.8685 237.384 51.5423 237.504 51.9766C237.639 52.3958 238.021 52.86 238.649 53.3691C239.293 53.8783 240.604 54.6195 242.58 55.5928C245.215 56.8805 246.945 58.0934 247.769 59.2314C248.592 60.3695 249.004 62.0241 249.004 64.1953C249.004 66.6211 248.689 68.4554 248.061 69.6982C247.432 70.9261 246.376 71.877 244.894 72.5508C243.426 73.2096 241.652 73.5391 239.57 73.5391C237.264 73.5391 235.288 73.1797 233.641 72.4609C232.008 71.7422 230.885 70.7689 230.271 69.541C229.658 68.3132 229.351 66.4564 229.351 63.9707V62.5332H237.392V64.4199C237.392 66.0221 237.489 67.0628 237.684 67.542C237.893 68.0212 238.298 68.2607 238.896 68.2607C239.54 68.2607 239.99 68.1035 240.244 67.7891C240.499 67.4596 240.626 66.7783 240.626 65.7451C240.626 64.3226 240.461 63.4316 240.132 63.0723C239.787 62.7129 238.028 61.6497 234.854 59.8828C232.188 58.3854 230.563 57.0303 229.979 55.8174C229.396 54.5895 229.104 53.137 229.104 51.46C229.104 49.0791 229.418 47.3271 230.047 46.2041C230.676 45.0661 231.739 44.1901 233.236 43.5762C234.749 42.9622 236.501 42.6553 238.492 42.6553C240.469 42.6553 242.146 42.9098 243.523 43.4189C244.916 43.9131 245.979 44.5719 246.713 45.3955C247.462 46.2191 247.911 46.9827 248.061 47.6865C248.225 48.3903 248.308 49.4909 248.308 50.9883V52.7178ZM260.773 36.6357V41.375H251.43V36.6357H260.773ZM260.773 43.1943V73H251.43V43.1943H260.773ZM284.582 53.6611V60.9609C284.582 63.6413 284.447 65.6104 284.178 66.8682C283.908 68.111 283.332 69.279 282.448 70.3721C281.565 71.4502 280.427 72.2513 279.034 72.7754C277.657 73.2845 276.069 73.5391 274.272 73.5391C272.266 73.5391 270.566 73.3219 269.174 72.8877C267.781 72.4385 266.696 71.7721 265.917 70.8887C265.153 69.9902 264.607 68.9121 264.277 67.6543C263.948 66.3815 263.783 64.4798 263.783 61.9492V54.3125C263.783 51.5423 264.083 49.3786 264.682 47.8213C265.281 46.264 266.359 45.0137 267.916 44.0703C269.473 43.127 271.465 42.6553 273.891 42.6553C275.927 42.6553 277.672 42.9622 279.124 43.5762C280.591 44.1751 281.722 44.9613 282.516 45.9346C283.309 46.9079 283.848 47.9111 284.133 48.9443C284.432 49.9775 284.582 51.5498 284.582 53.6611ZM275.508 51.415C275.508 49.8877 275.425 48.9294 275.261 48.54C275.096 48.1357 274.744 47.9336 274.205 47.9336C273.666 47.9336 273.307 48.1357 273.127 48.54C272.947 48.9294 272.857 49.8877 272.857 51.415V64.8691C272.857 66.2767 272.947 67.1976 273.127 67.6318C273.307 68.0511 273.659 68.2607 274.183 68.2607C274.722 68.2607 275.074 68.0661 275.238 67.6768C275.418 67.2874 275.508 66.4489 275.508 65.1611V51.415ZM296.823 43.1943L296.666 45.9346C297.325 44.8415 298.126 44.0254 299.069 43.4863C300.028 42.9323 301.128 42.6553 302.371 42.6553C303.928 42.6553 305.201 43.0221 306.189 43.7559C307.178 44.4896 307.814 45.418 308.099 46.541C308.383 47.6491 308.525 49.5059 308.525 52.1113V73H299.451V52.3584C299.451 50.307 299.384 49.0566 299.249 48.6074C299.114 48.1582 298.74 47.9336 298.126 47.9336C297.482 47.9336 297.078 48.1956 296.913 48.7197C296.748 49.2288 296.666 50.6064 296.666 52.8525V73H287.592V43.1943H296.823Z" fill="#F05454"/>
<path d="M81.1313 87H79.9062V78.7607H75.3486V87H74.1299V77.7578H81.1313V87ZM84.5718 83.3818V87H83.353V77.7578H86.7617C87.7731 77.7578 88.5645 78.016 89.1357 78.5322C89.7113 79.0485 89.999 79.7319 89.999 80.5825C89.999 81.4797 89.7176 82.1715 89.1548 82.6582C88.5962 83.1406 87.7943 83.3818 86.749 83.3818H84.5718ZM84.5718 82.3853H86.7617C87.4134 82.3853 87.9128 82.2329 88.2598 81.9282C88.6068 81.6193 88.7803 81.175 88.7803 80.5952C88.7803 80.0451 88.6068 79.605 88.2598 79.2749C87.9128 78.9448 87.4367 78.7734 86.8315 78.7607H84.5718V82.3853ZM98.6636 82.6772C98.6636 83.5828 98.5112 84.3742 98.2065 85.0513C97.9019 85.7241 97.4702 86.2383 96.9116 86.5938C96.353 86.9492 95.7013 87.127 94.9565 87.127C94.2287 87.127 93.5833 86.9492 93.0205 86.5938C92.4577 86.234 92.0197 85.7241 91.7065 85.064C91.3976 84.3996 91.2389 83.6315 91.2305 82.7598V82.0933C91.2305 81.2046 91.3849 80.4196 91.6938 79.7383C92.0028 79.057 92.4386 78.5365 93.0015 78.1768C93.5685 77.8128 94.216 77.6309 94.9438 77.6309C95.6844 77.6309 96.3361 77.8107 96.8989 78.1704C97.466 78.5259 97.9019 79.0443 98.2065 79.7256C98.5112 80.4027 98.6636 81.1919 98.6636 82.0933V82.6772ZM97.4512 82.0806C97.4512 80.9845 97.2311 80.1445 96.791 79.5605C96.3509 78.9723 95.7352 78.6782 94.9438 78.6782C94.1737 78.6782 93.5664 78.9723 93.1221 79.5605C92.682 80.1445 92.4556 80.957 92.4429 81.998V82.6772C92.4429 83.7394 92.665 84.5752 93.1094 85.1846C93.5579 85.7897 94.1737 86.0923 94.9565 86.0923C95.7437 86.0923 96.353 85.8066 96.7847 85.2354C97.2163 84.6598 97.4385 83.8368 97.4512 82.7661V82.0806ZM105.056 78.6846H105.252C105.951 78.6888 106.588 78.8517 107.163 79.1733C107.739 79.495 108.185 79.9393 108.502 80.5063C108.824 81.0692 108.985 81.6997 108.985 82.3979C108.985 83.1004 108.824 83.7373 108.502 84.3086C108.181 84.8799 107.736 85.3263 107.169 85.6479C106.602 85.9653 105.972 86.1283 105.278 86.1367H105.056V87.3809H103.875V86.1367H103.697C102.991 86.1367 102.347 85.9759 101.768 85.6543C101.192 85.3327 100.743 84.8883 100.422 84.3213C100.104 83.7542 99.9458 83.1174 99.9458 82.4106C99.9458 81.7039 100.104 81.0671 100.422 80.5C100.743 79.9329 101.192 79.4886 101.768 79.167C102.347 78.8454 102.991 78.6846 103.697 78.6846H103.875V77.377H105.056V78.6846ZM103.697 79.6431C102.902 79.6431 102.271 79.8885 101.806 80.3794C101.344 80.866 101.114 81.5431 101.114 82.4106C101.114 83.2824 101.344 83.9616 101.806 84.4482C102.267 84.9307 102.902 85.1719 103.71 85.1719H103.875V79.6431H103.697ZM105.056 79.6431V85.1719H105.233C106.042 85.1719 106.672 84.9243 107.125 84.4292C107.582 83.9299 107.811 83.2528 107.811 82.3979C107.811 81.5516 107.582 80.8809 107.125 80.3857C106.672 79.8906 106.033 79.6431 105.208 79.6431H105.056ZM115.745 82.728H111.74V86.0034H116.393V87H110.521V77.7578H116.329V78.7607H111.74V81.7314H115.745V82.728ZM124.708 84.0674C124.594 85.0449 124.232 85.8003 123.623 86.3335C123.017 86.8625 122.211 87.127 121.204 87.127C120.112 87.127 119.236 86.7355 118.576 85.9526C117.92 85.1698 117.592 84.1224 117.592 82.8105V81.9219C117.592 81.0628 117.745 80.3075 118.049 79.6558C118.358 79.0041 118.794 78.5047 119.357 78.1577C119.92 77.8065 120.571 77.6309 121.312 77.6309C122.294 77.6309 123.081 77.9059 123.673 78.4561C124.266 79.002 124.611 79.7594 124.708 80.7285H123.483C123.377 79.9922 123.146 79.459 122.791 79.1289C122.44 78.7988 121.947 78.6338 121.312 78.6338C120.533 78.6338 119.922 78.9215 119.478 79.4971C119.037 80.0726 118.817 80.8914 118.817 81.9536V82.8486C118.817 83.8516 119.027 84.6493 119.446 85.2417C119.865 85.8341 120.451 86.1304 121.204 86.1304C121.881 86.1304 122.4 85.978 122.759 85.6733C123.123 85.3644 123.364 84.8291 123.483 84.0674H124.708ZM133.176 84.0674C133.062 85.0449 132.7 85.8003 132.09 86.3335C131.485 86.8625 130.679 87.127 129.672 87.127C128.58 87.127 127.704 86.7355 127.044 85.9526C126.388 85.1698 126.06 84.1224 126.06 82.8105V81.9219C126.06 81.0628 126.212 80.3075 126.517 79.6558C126.826 79.0041 127.262 78.5047 127.825 78.1577C128.388 77.8065 129.039 77.6309 129.78 77.6309C130.762 77.6309 131.549 77.9059 132.141 78.4561C132.734 79.002 133.078 79.7594 133.176 80.7285H131.951C131.845 79.9922 131.614 79.459 131.259 79.1289C130.908 78.7988 130.415 78.6338 129.78 78.6338C129.001 78.6338 128.39 78.9215 127.945 79.4971C127.505 80.0726 127.285 80.8914 127.285 81.9536V82.8486C127.285 83.8516 127.495 84.6493 127.914 85.2417C128.333 85.8341 128.919 86.1304 129.672 86.1304C130.349 86.1304 130.867 85.978 131.227 85.6733C131.591 85.3644 131.832 84.8291 131.951 84.0674H133.176ZM140.672 77.7578H141.891V87H140.672V79.8779L136.121 87H134.896V77.7578H136.121V84.8799L140.672 77.7578ZM151.222 82.6772C151.222 83.5828 151.07 84.3742 150.765 85.0513C150.46 85.7241 150.029 86.2383 149.47 86.5938C148.912 86.9492 148.26 87.127 147.515 87.127C146.787 87.127 146.142 86.9492 145.579 86.5938C145.016 86.234 144.578 85.7241 144.265 85.064C143.956 84.3996 143.798 83.6315 143.789 82.7598V82.0933C143.789 81.2046 143.944 80.4196 144.252 79.7383C144.561 79.057 144.997 78.5365 145.56 78.1768C146.127 77.8128 146.775 77.6309 147.502 77.6309C148.243 77.6309 148.895 77.8107 149.458 78.1704C150.025 78.5259 150.46 79.0443 150.765 79.7256C151.07 80.4027 151.222 81.1919 151.222 82.0933V82.6772ZM150.01 82.0806C150.01 80.9845 149.79 80.1445 149.35 79.5605C148.91 78.9723 148.294 78.6782 147.502 78.6782C146.732 78.6782 146.125 78.9723 145.681 79.5605C145.241 80.1445 145.014 80.957 145.001 81.998V82.6772C145.001 83.7394 145.224 84.5752 145.668 85.1846C146.117 85.7897 146.732 86.0923 147.515 86.0923C148.302 86.0923 148.912 85.8066 149.343 85.2354C149.775 84.6598 149.997 83.8368 150.01 82.7661V82.0806ZM160.153 87H158.928V82.728H154.269V87H153.05V77.7578H154.269V81.7314H158.928V77.7578H160.153V87ZM167.536 84.5879H163.664L162.794 87H161.537L165.066 77.7578H166.133L169.668 87H168.418L167.536 84.5879ZM164.032 83.585H167.174L165.6 79.2622L164.032 83.585ZM178.016 77.7578V87H176.797V78.7607H173.483L173.318 82.4233C173.255 83.6506 173.128 84.5731 172.938 85.1909C172.751 85.8088 172.476 86.2637 172.112 86.5557C171.748 86.8434 171.262 86.9915 170.652 87H170.252V86.0034L170.506 85.9907C170.9 85.9611 171.202 85.8341 171.414 85.6099C171.626 85.3813 171.786 85.0195 171.896 84.5244C172.007 84.0293 172.085 83.2676 172.131 82.2393L172.322 77.7578H178.016ZM181.412 81.5283H183.709C184.674 81.541 185.428 81.7886 185.969 82.271C186.511 82.7534 186.782 83.4093 186.782 84.2388C186.782 85.0724 186.509 85.7368 185.963 86.2319C185.417 86.7271 184.672 86.9831 183.729 87H180.193V77.7578H181.412V81.5283ZM181.412 82.5312V86.0034H183.64C184.245 86.0034 184.715 85.8426 185.049 85.521C185.387 85.1994 185.557 84.7677 185.557 84.2261C185.557 83.7056 185.394 83.2951 185.068 82.9946C184.746 82.6942 184.287 82.5397 183.69 82.5312H181.412ZM195.497 87H194.272V82.728H189.613V87H188.394V77.7578H189.613V81.7314H194.272V77.7578H195.497V87ZM198.938 81.5283H201.235C202.2 81.541 202.953 81.7886 203.495 82.271C204.037 82.7534 204.308 83.4093 204.308 84.2388C204.308 85.0724 204.035 85.7368 203.489 86.2319C202.943 86.7271 202.198 86.9831 201.254 87H197.719V77.7578H198.938V81.5283ZM198.938 82.5312V86.0034H201.166C201.771 86.0034 202.24 85.8426 202.575 85.521C202.913 85.1994 203.083 84.7677 203.083 84.2261C203.083 83.7056 202.92 83.2951 202.594 82.9946C202.272 82.6942 201.813 82.5397 201.216 82.5312H198.938ZM206.644 87H205.425V77.7578H206.644V87ZM214.737 77.7578H215.956V87H214.737V79.8779L210.186 87H208.96V77.7578H210.186V84.8799L214.737 77.7578ZM214.394 75.46C214.394 75.972 214.218 76.3846 213.867 76.6978C213.52 77.0067 213.063 77.1611 212.496 77.1611C211.929 77.1611 211.47 77.0046 211.119 76.6914C210.767 76.3783 210.592 75.9678 210.592 75.46H211.55C211.55 75.7562 211.631 75.9889 211.792 76.1582C211.952 76.3232 212.187 76.4058 212.496 76.4058C212.792 76.4058 213.023 76.3232 213.188 76.1582C213.357 75.9932 213.442 75.7604 213.442 75.46H214.394ZM222.621 83.3818V87H221.402V77.7578H224.811C225.822 77.7578 226.613 78.016 227.185 78.5322C227.76 79.0485 228.048 79.7319 228.048 80.5825C228.048 81.4797 227.766 82.1715 227.204 82.6582C226.645 83.1406 225.843 83.3818 224.798 83.3818H222.621ZM222.621 82.3853H224.811C225.462 82.3853 225.962 82.2329 226.309 81.9282C226.656 81.6193 226.829 81.175 226.829 80.5952C226.829 80.0451 226.656 79.605 226.309 79.2749C225.962 78.9448 225.486 78.7734 224.88 78.7607H222.621V82.3853ZM234.827 82.728H230.822V86.0034H235.475V87H229.603V77.7578H235.411V78.7607H230.822V81.7314H234.827V82.728ZM238.566 77.7578L241.587 85.2988L244.609 77.7578H246.189V87H244.971V83.4009L245.085 79.5161L242.051 87H241.118L238.09 79.5352L238.21 83.4009V87H236.992V77.7578H238.566ZM255.451 82.6772C255.451 83.5828 255.298 84.3742 254.994 85.0513C254.689 85.7241 254.257 86.2383 253.699 86.5938C253.14 86.9492 252.488 87.127 251.744 87.127C251.016 87.127 250.37 86.9492 249.808 86.5938C249.245 86.234 248.807 85.7241 248.494 85.064C248.185 84.3996 248.026 83.6315 248.018 82.7598V82.0933C248.018 81.2046 248.172 80.4196 248.481 79.7383C248.79 79.057 249.226 78.5365 249.789 78.1768C250.356 77.8128 251.003 77.6309 251.731 77.6309C252.472 77.6309 253.123 77.8107 253.686 78.1704C254.253 78.5259 254.689 79.0443 254.994 79.7256C255.298 80.4027 255.451 81.1919 255.451 82.0933V82.6772ZM254.238 82.0806C254.238 80.9845 254.018 80.1445 253.578 79.5605C253.138 78.9723 252.522 78.6782 251.731 78.6782C250.961 78.6782 250.354 78.9723 249.909 79.5605C249.469 80.1445 249.243 80.957 249.23 81.998V82.6772C249.23 83.7394 249.452 84.5752 249.896 85.1846C250.345 85.7897 250.961 86.0923 251.744 86.0923C252.531 86.0923 253.14 85.8066 253.572 85.2354C254.003 84.6598 254.226 83.8368 254.238 82.7661V82.0806ZM264.382 87H263.157V82.728H258.498V87H257.279V77.7578H258.498V81.7314H263.157V77.7578H264.382V87ZM272.742 78.7607H269.771V87H268.559V78.7607H265.594V77.7578H272.742V78.7607ZM282.187 84.5879H278.315L277.445 87H276.188L279.718 77.7578H280.784L284.32 87H283.069L282.187 84.5879ZM278.683 83.585H281.825L280.251 79.2622L278.683 83.585ZM287.963 82.8486H286.84V87H285.621V77.7578H286.84V81.833H287.792L291.023 77.7578H292.54L289.011 82.2393L292.8 87H291.309L287.963 82.8486ZM300.976 87H299.751V78.7607H295.193V87H293.975V77.7578H300.976V87ZM310.256 87H309.031V78.7607H304.474V87H303.255V77.7578H310.256V87Z" fill="#F05454"/>
</svg>
